<svg width="22" height="24" viewBox="0 0 22 24" fill="none" xmlns="http://www.w3.org/2000/svg">
<path d="M21.9998 5C21.9998 4.20435 21.6837 3.44129 21.1211 2.87868C20.5585 2.31607 19.7954 2 18.9998 2H18.8288C18.6212 1.41549 18.2379 0.909511 17.7314 0.551443C17.2249 0.193376 16.62 0.000756748 15.9998 0L5.99977 0C5.37949 0.000756748 4.77464 0.193376 4.26815 0.551443C3.76167 0.909511 3.37835 1.41549 3.17077 2H2.99977C2.39363 2.00399 1.80293 2.1915 1.30546 2.53783C0.807998 2.88415 0.42711 3.37305 0.212974 3.94011C-0.00116259 4.50717 -0.038502 5.1258 0.105874 5.7145C0.25025 6.3032 0.569569 6.83435 1.02177 7.238L2.56977 19.62C2.72232 20.8286 3.31027 21.9402 4.22349 22.7464C5.13671 23.5527 6.31255 23.9984 7.53077 24H14.4688C15.6869 23.9982 16.8626 23.5524 17.7758 22.7462C18.689 21.94 19.277 20.8285 19.4298 19.62L20.9778 7.238C21.2976 6.95918 21.5542 6.6153 21.7304 6.22935C21.9067 5.84341 21.9985 5.42428 21.9998 5ZM18.1168 14H14.9168C14.0248 8.713 7.96977 8.716 7.07877 14H3.87877L3.12877 8H18.8668L18.1168 14ZM12.9998 15C12.8948 18.954 9.10477 18.953 8.99977 15C9.10477 11.046 12.8998 11.047 12.9998 15ZM2.99977 4H3.99977C4.26498 4 4.51934 3.89464 4.70687 3.70711C4.89441 3.51957 4.99977 3.26522 4.99977 3C4.99977 2.73478 5.10512 2.48043 5.29266 2.29289C5.4802 2.10536 5.73455 2 5.99977 2H15.9998C16.265 2 16.5193 2.10536 16.7069 2.29289C16.8944 2.48043 16.9998 2.73478 16.9998 3C16.9998 3.26522 17.1051 3.51957 17.2927 3.70711C17.4802 3.89464 17.7346 4 17.9998 4H18.9998C19.265 4 19.5193 4.10536 19.7069 4.29289C19.8944 4.48043 19.9998 4.73478 19.9998 5C19.9998 5.26522 19.8944 5.51957 19.7069 5.70711C19.5193 5.89464 19.265 6 18.9998 6H2.99977C2.73455 6 2.4802 5.89464 2.29266 5.70711C2.10512 5.51957 1.99977 5.26522 1.99977 5C1.99977 4.73478 2.10512 4.48043 2.29266 4.29289C2.4802 4.10536 2.73455 4 2.99977 4ZM17.4448 19.372C17.3541 20.0974 17.0017 20.7648 16.4537 21.2487C15.9057 21.7326 15.1998 21.9998 14.4688 22H7.53077C6.79952 22 6.09343 21.733 5.54522 21.2491C4.99702 20.7651 4.64444 20.0976 4.55377 19.372L4.13277 16H7.08077C7.97277 21.287 14.0288 21.284 14.9188 16H17.8668L17.4448 19.372Z" fill="#FDFEFF"/>
</svg>
