<svg width="500" height="500" viewBox="0 0 500 500" fill="none" xmlns="http://www.w3.org/2000/svg">
<path d="M294.203 233.635C294.188 229.666 294.172 225.698 294.135 221.729C294.109 218.291 294.089 214.854 294.052 211.416C294.026 208.693 294 205.963 293.969 203.234L294.125 198.89C295.083 187.995 294.578 178.88 284.953 172.739C272.37 164.724 254.385 163.531 239.953 164.677C228.255 165.609 216.146 168.198 205.031 171.932C194.448 175.489 183.604 180.62 175.708 188.734C171.641 192.791 168.536 196.609 169.016 202.583C169.255 205.922 169.964 210.005 170.516 212.594L171.25 215.354C177.896 238.859 196.833 305.578 201.979 320.724L202.026 320.87C202.479 322.302 203.135 323.693 203.885 324.995C205.323 327.5 207.188 329.911 209.474 331.703C211.734 333.479 214.604 335.078 217.193 336.146C218.297 336.594 219.188 336.797 219.51 338.078C219.755 339.041 219.583 340.057 219.651 341.036C219.75 342.489 219.651 343.307 220.542 344.552C221.484 345.859 224.953 346.177 227.568 346.364C228.604 346.406 229.651 346.427 230.688 346.427C239.844 346.427 249.365 344.828 258.573 343.286L262.583 342.614C268.162 341.776 273.505 339.463 279.807 336.255C281.344 335.474 282.828 334.541 284.13 333.416C285.406 332.318 285.349 331.349 285.328 329.729C285.313 328.307 285.344 328.312 285.234 326.896C285.146 325.807 285.063 324.713 286.057 323.995C287.63 322.864 289.719 321.156 291.219 319.932C292.917 318.552 292.635 316.505 292.859 314.568C293.104 312.411 293.12 310.239 293.24 308.078C293.432 304.708 293.604 301.349 293.672 297.969C293.755 294.052 293.927 290.14 293.969 286.224C294.016 281.943 294.109 277.666 294.151 273.39C294.188 268.927 294.198 264.463 294.229 260C294.255 255.526 294.229 251.052 294.234 246.573C294.245 242.265 294.219 237.948 294.203 233.635Z" fill="#F14D45"/>
<mask id="mask0_3264_787" style="mask-type:luminance" maskUnits="userSpaceOnUse" x="174" y="56" width="68" height="135">
<path d="M174.666 56.7969H241.333V190.667H174.666V56.7969Z" fill="white"/>
</mask>
<g mask="url(#mask0_3264_787)">
<path d="M177.745 61.3957C178.365 60.4061 179.011 59.6457 179.599 59.1301C180.198 58.604 180.589 58.2863 181.177 58.229C181.761 58.1874 181.761 58.9322 181.781 59.3592C181.792 60.4217 181.448 61.7082 181.12 62.3801C180.787 63.0415 179.714 64.9895 178.453 66.2915C178.094 66.6665 177.807 67.0936 177.375 67.3801C176.771 67.7707 176.469 67.4374 176.214 66.8488C175.755 65.8228 176.5 63.4165 177.745 61.3957ZM175.74 68.2863L175.698 68.2707C177.99 71.2759 183.224 73.5832 186.281 75.6874C190.974 79.2134 195.865 82.5363 200.396 86.2603C203.88 89.0936 207.193 92.1457 210.162 95.5832C214.823 101.443 215.672 110.25 216.776 117.51L217.047 120.203C217.766 130.156 221.578 158.333 226.068 189.656C226.37 189.844 226.729 189.974 227.13 190.042C229.094 190.375 238.891 189.818 240.771 187.224C236.896 155.781 233.208 126.109 232.953 124.515C231.391 115.38 230.188 106.182 228.391 97.0728C226.797 88.8801 203.964 72.078 197.37 67.0676C193.495 64.1301 184.198 58.2551 182.339 57.1092L182.349 57.1561C182.224 57.052 182.094 56.953 181.922 56.8957C181.677 56.8072 181.406 56.7811 181.073 56.7967C181.031 56.8072 180.974 56.8072 180.917 56.828C179.412 56.9947 177.745 58.604 176.526 60.5624C175.125 62.8384 174.302 65.604 175.021 67.2499C175.24 67.7238 175.479 68.0415 175.74 68.2863Z" fill="#E3CB20"/>
</g>
<path d="M164.068 179.505C163.849 164.146 173.318 148.057 184.224 137.859C184.73 137.385 183.969 136.63 183.464 137.104C172.334 147.505 162.771 163.854 162.99 179.505C163 180.198 164.073 180.198 164.068 179.505Z" fill="#E3CB20"/>
<path d="M195.198 128.073C192.166 129.469 189.666 131.562 187.312 133.896C186.823 134.385 187.583 135.141 188.073 134.656C190.364 132.385 192.791 130.359 195.739 129C196.37 128.713 195.823 127.786 195.198 128.073Z" fill="#E3CB20"/>
<path d="M203.176 124.609C203.812 124.339 203.265 123.417 202.635 123.682C201.473 124.182 200.317 124.682 199.254 125.37C198.671 125.745 199.213 126.677 199.796 126.302C200.859 125.609 202.015 125.109 203.176 124.609Z" fill="#E3CB20"/>
<path d="M166.381 195.37C163.501 193.12 156.85 188.005 160.105 183.745C160.521 183.193 159.589 182.656 159.172 183.203C155.553 187.953 162.407 193.62 165.62 196.125C166.157 196.547 166.922 195.792 166.381 195.37Z" fill="#E3CB20"/>
<path d="M157.36 192.635C157.365 191.943 156.292 191.943 156.282 192.635C156.261 194.687 157.193 196.557 157.98 198.406C158.25 199.042 159.177 198.495 158.907 197.864C158.198 196.198 157.339 194.484 157.36 192.635Z" fill="#E3CB20"/>
<path d="M205.918 131.344C204.657 136.995 212.313 139.333 216.657 139.047C217.35 139 217.355 137.927 216.657 137.974C213.11 138.203 205.876 136.464 206.954 131.63C207.105 130.958 206.069 130.672 205.918 131.344Z" fill="#E3CB20"/>
<path d="M207.983 129.635C208.796 128.651 209.796 127.953 210.858 127.271C211.442 126.901 210.9 125.969 210.317 126.344C209.176 127.068 208.093 127.828 207.223 128.875C206.786 129.406 207.546 130.172 207.983 129.635Z" fill="#E3CB20"/>
<path d="M211.056 333.989C205.879 332.635 203.249 328.578 200.614 324.276C200.254 323.687 199.322 324.224 199.687 324.818C202.478 329.38 205.317 333.599 210.77 335.026C211.442 335.198 211.728 334.166 211.056 333.989Z" fill="#E3CB20"/>
<path d="M184.068 269.734C178.573 250.823 173.464 231.714 167.281 213.01C167.063 212.354 166.026 212.635 166.24 213.297C172.261 231.5 177.24 250.089 182.589 268.495C187.485 285.339 191.542 302.776 197.573 319.266C197.807 319.911 198.849 319.63 198.61 318.979C192.755 302.99 188.818 286.073 184.068 269.734Z" fill="#E3CB20"/>
<path d="M219.224 345.927C216.656 344.932 215.718 342.026 215.75 339.49C215.76 338.797 214.687 338.802 214.677 339.49C214.635 342.563 215.901 345.787 218.937 346.964C219.583 347.214 219.859 346.177 219.224 345.927Z" fill="#E3CB20"/>
<path d="M245.027 276.828H245.016C243.573 276.167 242.11 275.542 240.641 274.932C242.115 275.542 243.579 276.167 245.027 276.828ZM263.719 258.875V258.88C264.219 258.755 264.719 258.38 264.839 257.995C266.157 256.948 278.157 243.714 279.719 236.745C280.042 236.25 280.042 235.792 279.99 235.37C280.339 233.38 249.49 229.167 247.459 230.906H247.454C247.042 230.979 246.641 231.208 246.214 231.536C244.631 218.641 242.735 203.198 240.876 188.094C238.178 190.661 229.615 191.536 226.188 190.458C228.73 208.234 231.485 226.964 234.016 243.932C231.589 246.578 233.641 264.531 236.537 265.151C236.761 265.203 236.99 265.234 237.219 265.281C237.683 268.349 238.662 274.125 238.714 274.146C233.157 271.932 213.896 284.427 214.183 285.469C214.183 286.005 214.323 286.635 214.568 286.859C215.928 291.26 226.865 303.063 229.917 304.792C230.235 305.208 230.777 305.521 231.167 305.474C232.657 306.276 249.553 312.073 256.579 310.766C257.172 310.87 257.6 310.693 257.975 310.464C259.938 310.005 251.933 280.172 252.058 280.234C251.516 275.344 250.938 270.453 250.355 265.557C251.662 264.474 260.922 260.995 263.719 258.875Z" fill="#E3CB20"/>
<path d="M236.542 265.151C236.771 265.198 236.984 265.255 237.213 265.297C236.224 258.698 235.135 251.474 234 243.912C231.578 246.547 229.224 249.271 226.932 252.021C225.667 253.526 224.245 255.297 224.104 257.349C224.104 257.417 224.088 257.474 224.088 257.547C224.047 259.953 226.344 261.083 228.193 262.162C230.76 263.651 233.641 264.526 236.542 265.151Z" fill="#F5893D"/>
<path d="M250.354 265.557C251.848 265.271 253.307 264.807 254.755 264.208C257.937 262.875 260.921 261 263.702 258.865C258.057 250.932 252.421 242.995 246.65 235.146C248.359 249.042 249.619 259.365 249.937 262.016C250.077 263.193 250.208 264.386 250.354 265.557Z" fill="#F5893D"/>
<path d="M246.291 232.24L246.307 232.266C252.572 240.776 258.687 249.386 264.838 257.995C266.156 256.948 267.432 255.86 268.671 254.755C274.249 249.771 278.15 243.714 279.713 236.75C268.65 234.787 257.494 233.255 246.291 232.24Z" fill="#F5893D"/>
<path d="M253.652 225.812C251.527 227.469 249.464 229.161 247.428 230.922L247.454 230.906C258.355 231.943 269.214 233.443 279.985 235.365C280.344 233.37 280.516 231.307 280.475 229.187C280.433 226.682 280.016 224.135 279.511 221.672C278.923 218.693 278.178 211.828 273.73 213.349C270.792 214.349 267.751 216.37 265.058 217.932C261.053 220.25 257.292 222.958 253.652 225.812Z" fill="#F5893D"/>
<path d="M214.568 286.854C215.928 291.25 218.068 295.375 221.48 298.672C223.959 301.078 226.886 303.083 229.943 304.813L229.912 304.787C235.35 295.865 240.829 286.969 246.136 277.958C235.751 281.281 224.678 282.828 214.568 286.854Z" fill="#F5893D"/>
<path d="M215.73 267.833C215.657 267.849 215.6 267.875 215.543 267.906C213.308 268.807 213.162 271.354 212.902 273.474C212.532 276.427 212.876 279.406 213.433 282.312C213.652 283.401 213.892 284.489 214.178 285.552V285.463C224.058 281.552 234.85 279.995 245.017 276.828L245.001 276.812C243.944 276.328 242.881 275.87 241.803 275.411C240.73 274.948 239.652 274.51 238.548 274.078C233.037 271.885 227.386 270.01 221.735 268.333C219.86 267.76 217.668 267.156 215.73 267.833Z" fill="#F5893D"/>
<path d="M256.579 310.761V310.745C254.021 299.828 251.058 288.99 247.584 278.318C242.219 287.427 236.673 296.432 231.162 305.474C232.657 306.292 234.162 307.021 235.652 307.719C242.449 310.886 249.548 312.078 256.579 310.761Z" fill="#F5893D"/>
<path d="M263.833 308.479C266.13 307.464 268.307 306.063 270.374 304.646C272.885 302.927 278.911 299.531 275.77 296.063C273.687 293.755 270.635 291.75 268.124 289.891C264.421 287.125 260.432 284.75 256.39 282.526C254.958 281.74 253.51 280.985 252.057 280.24L251.916 280.167C251.041 279.719 250.15 279.261 249.26 278.833C252.604 289.235 255.484 299.818 257.968 310.458C259.932 310.016 261.895 309.354 263.833 308.479Z" fill="#F5893D"/>
<path d="M222.765 194.01C229.109 196.568 236.994 195.344 242.416 191.239C242.963 190.828 242.426 189.896 241.869 190.312C239.296 192.26 236.411 193.328 233.26 193.943C231.484 194.286 229.676 194.281 227.885 194.177C226.88 194.094 225.895 193.917 224.926 193.651C222.39 193.036 218.145 189.521 223.598 187.489C224.239 187.25 223.963 186.208 223.312 186.453C219.734 187.786 218.692 192.37 222.765 194.01Z" fill="#F5893D"/>
<path d="M177.042 191.729C187.823 181.224 202.381 176.172 216.777 172.813C217.448 172.656 217.162 171.62 216.49 171.776C201.922 175.172 187.188 180.344 176.282 190.969C175.787 191.459 176.547 192.214 177.042 191.729Z" fill="#F5893D"/>
<path d="M171.193 199.865C171.417 199.359 171.495 198.818 171.709 198.318C171.985 197.693 171.058 197.141 170.782 197.776C170.563 198.276 170.485 198.823 170.266 199.318C169.995 199.948 170.917 200.5 171.193 199.865Z" fill="#F5893D"/>
<path d="M171.526 204.224C171.573 203.537 170.5 203.542 170.448 204.224C170.281 206.714 171.193 208.943 171.76 211.323C171.922 212 172.958 211.714 172.797 211.037C172.255 208.755 171.359 206.62 171.526 204.224Z" fill="#F5893D"/>
<path d="M203.224 306.833C195.932 278.401 185.516 250.906 177.698 222.625C177.51 221.958 176.474 222.245 176.656 222.911C184.479 251.192 194.896 278.687 202.187 307.12C202.359 307.791 203.396 307.505 203.224 306.833Z" fill="#F5893D"/>
<path d="M204.124 311.766C204.056 311.083 202.978 311.078 203.046 311.766C203.161 312.833 203.494 313.828 203.786 314.859C203.973 315.526 205.01 315.245 204.822 314.573C204.562 313.646 204.228 312.729 204.124 311.766Z" fill="#F5893D"/>
<path d="M222.058 332.161C218.631 330.443 215.318 328.646 212.433 326.089C209.86 323.807 206.777 320.479 206.261 316.995C206.157 316.312 205.121 316.599 205.22 317.276C205.709 320.583 208.24 323.193 210.417 325.562C213.496 328.922 217.49 331.062 221.516 333.089C222.131 333.396 222.678 332.469 222.058 332.161Z" fill="#F5893D"/>
<path d="M179.426 201.318C178.796 201.047 178.244 201.969 178.879 202.245C191.786 207.786 205.874 208.594 219.749 208.833C235.275 209.104 251.442 206.01 265.957 200.63C266.603 200.391 266.327 199.354 265.671 199.594C252.358 204.526 238.218 207.068 224.056 207.693C209.27 208.354 193.108 207.193 179.426 201.318Z" fill="#F5893D"/>
<path d="M276.307 326.61C260.995 333.38 242.677 337.537 226.021 333.531C225.349 333.37 225.063 334.406 225.734 334.573C242.662 338.636 261.287 334.422 276.849 327.537C277.484 327.255 276.938 326.334 276.307 326.61Z" fill="#F5893D"/>
<path d="M280.817 325.193C280.244 325.453 279.687 325.745 279.088 325.932C278.432 326.146 278.713 327.182 279.374 326.974C280.067 326.755 280.703 326.417 281.359 326.12C281.994 325.844 281.447 324.917 280.817 325.193Z" fill="#F5893D"/>
<path d="M283.744 324.062C283.051 324.062 283.051 325.135 283.744 325.135C284.437 325.135 284.437 324.062 283.744 324.062Z" fill="#F5893D"/>
<path d="M226.656 193.724C226.458 192.609 226.01 191.359 225.854 190.281C226.755 190.557 228.036 190.693 229.494 190.693C233.577 190.693 238.999 189.635 240.989 187.745C241.093 188.552 241.088 189.625 241.166 190.489C241.067 189.693 240.973 188.896 240.874 188.094C238.932 189.937 233.958 190.911 230.046 190.911C228.515 190.911 227.145 190.76 226.187 190.458C226.338 191.542 226.494 192.635 226.656 193.724Z" fill="#F14D45"/>
<path d="M229.854 194.24C229.198 194.24 228.542 194.214 227.885 194.177C227.599 194.151 227.313 194.12 227.026 194.083C226.917 194.063 226.807 194.047 226.698 194.026C226.687 193.927 226.672 193.828 226.656 193.724C226.495 192.635 226.339 191.542 226.188 190.458C227.146 190.76 228.516 190.911 230.047 190.911C233.958 190.911 238.932 189.938 240.875 188.094C240.974 188.896 241.068 189.693 241.167 190.49C241.177 190.594 241.188 190.693 241.203 190.786C238.792 192.448 236.135 193.38 233.255 193.943C232.391 194.109 231.51 194.193 230.63 194.224C230.37 194.234 230.115 194.24 229.854 194.24Z" fill="#F2653C"/>
<path d="M229.781 194.245C229.15 194.245 228.52 194.219 227.89 194.182C227.604 194.162 227.312 194.125 227.025 194.083C227.312 194.12 227.598 194.151 227.885 194.177C228.541 194.214 229.197 194.24 229.854 194.24C230.114 194.24 230.369 194.235 230.63 194.224C230.348 194.235 230.062 194.245 229.781 194.245Z" fill="#F25844"/>
<path d="M228.567 206.958C228.244 205.099 227.645 203.281 227.374 201.417C227.088 199.438 227.145 197.406 226.9 195.432C227.447 199.25 228.005 203.104 228.567 206.958ZM242.989 205.287C242.452 200.906 241.906 196.458 241.359 192.021C241.577 193.766 242.244 195.047 242.458 196.802C242.791 199.485 242.702 202.599 242.989 205.287Z" fill="#F14D45"/>
<path d="M228.641 207.422C228.62 207.266 228.594 207.115 228.568 206.958C228.005 203.104 227.448 199.25 226.901 195.432C226.885 195.328 226.875 195.224 226.859 195.12C227.854 195.271 228.87 195.349 229.88 195.349C233.927 195.349 238.016 194.167 241.354 191.99C241.354 192 241.354 192.011 241.359 192.021C241.906 196.458 242.453 200.906 242.99 205.287C243.005 205.406 243.021 205.531 243.031 205.651C238.271 206.485 233.464 207.068 228.641 207.422Z" fill="#F2653C"/>
<path d="M229.88 195.349C228.87 195.349 227.854 195.271 226.859 195.12V195.115C227.854 195.266 228.87 195.344 229.891 195.344C233.932 195.344 238.021 194.162 241.354 191.99C238.016 194.167 233.927 195.349 229.88 195.349Z" fill="#F25844"/>
<path d="M252.063 280.24H252.058V280.235C251.516 275.344 250.938 270.453 250.355 265.557C250.542 267.12 251.214 268.802 251.417 270.5C251.803 273.797 251.725 277.198 252.063 280.24ZM238.714 274.141C238.662 274.12 238.605 274.099 238.548 274.078C238.386 273.026 236.62 270.865 236.36 269.13C236.068 267.182 237.449 266.823 237.219 265.281C237.673 268.307 238.636 273.969 238.714 274.141ZM234.016 243.932C233.271 238.922 231.037 233.526 230.282 228.391C229.36 222.12 229.777 216.052 228.943 209.552C230.652 221.255 232.381 232.964 234.016 243.932ZM246.214 231.537C245.318 224.245 244.329 216.141 243.292 207.74C243.959 212.792 244.933 217.526 245.558 222.604C245.907 225.469 245.907 229.011 246.214 231.537Z" fill="#F14D45"/>
<path d="M252.058 280.234L251.969 280.193C251.62 280.01 251.266 279.833 250.917 279.656C250.37 279.38 249.818 279.099 249.261 278.833C247.995 278.214 246.725 277.604 245.443 277.01C243.761 276.234 242.063 275.5 240.339 274.797C239.803 274.573 239.261 274.354 238.714 274.141C238.636 273.969 237.673 268.307 237.219 265.281C236.12 258.016 235.256 252.25 234.016 243.932C232.381 232.964 230.652 221.255 228.943 209.552C228.907 209.24 228.865 208.932 228.818 208.625C232.381 208.401 235.954 208.01 239.506 207.474C240.735 207.286 241.959 207.083 243.183 206.859C243.219 207.156 243.256 207.453 243.292 207.74C244.329 216.141 245.318 224.245 246.214 231.536C246.245 231.771 246.277 232.005 246.303 232.24C246.298 232.24 246.298 232.24 246.292 232.24L246.303 232.266C246.423 233.245 246.542 234.208 246.662 235.156C246.657 235.151 246.657 235.151 246.652 235.146C247.636 243.167 248.475 249.995 249.068 254.844C249.501 258.396 249.798 260.854 249.933 262.021C250.037 262.891 250.105 263.458 250.178 264.083C250.235 264.573 250.292 265.068 250.355 265.557C250.938 270.453 251.516 275.344 252.058 280.234Z" fill="#F2653C"/>
<path d="M250.354 265.557C250.291 265.068 250.234 264.573 250.176 264.083C250.229 264.511 250.286 264.958 250.354 265.557ZM249.067 254.844C248.473 249.995 247.635 243.167 246.65 235.146C246.656 235.151 246.656 235.151 246.661 235.156C247.666 243.354 248.484 250.078 249.067 254.844Z" fill="#F25844"/>
<path d="M246.301 232.266L246.291 232.24C246.296 232.24 246.296 232.24 246.301 232.24C246.301 232.245 246.301 232.255 246.301 232.266Z" fill="#F25844"/>
<path d="M240.339 274.797C239.745 274.552 239.151 274.312 238.547 274.078C238.604 274.099 238.661 274.12 238.714 274.141C239.26 274.354 239.802 274.573 240.339 274.797Z" fill="#F25844"/>
<path d="M252.062 280.24C252.031 280.224 251.999 280.208 251.968 280.193L252.057 280.235V280.24H252.062ZM250.916 279.656C250.364 279.38 249.812 279.104 249.26 278.833C249.817 279.099 250.369 279.38 250.916 279.656Z" fill="#F25844"/>
<path d="M240.204 182.641C240.021 181.156 239.839 179.677 239.657 178.208C233.594 177.13 227.902 174.469 223.318 170.156C223.6 172.172 223.881 174.214 224.178 176.281C228.954 179.661 234.438 181.792 240.204 182.641Z" fill="#40AC9D"/>
<path d="M238.666 170.162C238.473 168.61 238.286 167.078 238.098 165.563C232.229 163.797 226.739 161.13 221.588 157.63C221.833 159.443 222.088 161.292 222.348 163.177C227.489 166.271 232.885 168.61 238.666 170.162Z" fill="#40AC9D"/>
<path d="M219.688 143.328C219.938 145.255 220.198 147.266 220.474 149.344C225.5 152.792 231.063 155.052 236.943 156.25C236.755 154.703 236.568 153.193 236.385 151.719C230.323 150.281 224.661 147.573 219.688 143.328Z" fill="#40AC9D"/>
<path d="M207.662 92.8644C212.527 91.8071 217.11 89.755 221.214 86.88C220.23 85.8853 219.183 84.88 218.094 83.8696C213.813 86.729 208.969 88.6092 203.85 89.2238C205.157 90.3957 206.433 91.5988 207.662 92.8644Z" fill="#40AC9D"/>
<path d="M197.614 84.0679C202.65 82.8595 207.484 81.0679 212.114 78.6304C210.895 77.6095 209.671 76.6095 208.479 75.646C203.572 78.0314 198.447 79.6825 193.057 80.6564C194.593 81.7762 196.109 82.9116 197.614 84.0679Z" fill="#40AC9D"/>
<path d="M200.792 69.6563C199.422 68.6146 198.245 67.7292 197.365 67.0625C197.271 66.9896 197.156 66.9063 197.052 66.8281C191.75 69.6875 185.948 71.401 179.672 71.6563C181.719 73 183.974 74.1979 185.719 75.3333C191.083 74.375 196.125 72.4167 200.792 69.6563Z" fill="#40AC9D"/>
<path d="M240.593 127.849C240.572 127.615 240.531 127.375 240.468 127.13L240.437 127C240.369 126.771 240.281 126.537 240.166 126.302L240.104 126.156C239.973 125.896 239.817 125.63 239.635 125.36L239.598 125.302C239.39 125.005 239.156 124.698 238.88 124.386L238.708 124.261C236.859 122.87 234.791 122.61 232.64 122.656C232.697 122.985 232.755 123.297 232.812 123.625C233.234 123.662 233.64 123.714 234.041 123.766C234.229 123.797 234.411 123.823 234.593 123.854C234.864 123.901 235.119 123.958 235.369 124.021C235.572 124.068 235.781 124.115 235.968 124.167C236.166 124.224 236.343 124.297 236.531 124.365C236.749 124.443 236.973 124.521 237.177 124.62C237.26 124.656 237.328 124.703 237.406 124.745C237.661 124.88 237.916 125.016 238.13 125.177C239.156 126.328 239.536 127.36 239.437 128.276C239.218 130.318 236.572 131.802 233.046 132.849C232.968 132.87 232.895 132.891 232.822 132.917C230.031 133.719 226.718 134.25 223.619 134.568C223.567 134.578 223.51 134.583 223.453 134.589C223.161 134.62 222.869 134.646 222.578 134.672C222.489 134.682 222.395 134.688 222.307 134.693C222.036 134.719 221.77 134.74 221.505 134.761C221.406 134.766 221.307 134.771 221.203 134.781C221.145 134.787 221.083 134.787 221.026 134.792C220.151 134.375 219.286 133.938 218.447 133.443C218.505 133.922 218.567 134.422 218.624 134.922C218.421 134.927 218.229 134.932 218.036 134.938C217.947 134.938 217.864 134.943 217.776 134.943C217.619 134.948 217.458 134.948 217.302 134.948L217.156 134.953C217.098 134.953 217.036 134.953 216.979 134.953C216.088 134.953 215.322 134.932 214.723 134.891L214.651 134.886C214.348 134.865 214.088 134.833 213.88 134.802L213.843 134.792C213.479 134.729 213.14 134.636 212.822 134.516L212.697 134.469C212.401 134.354 212.13 134.208 211.88 134.052L211.749 133.969C211.51 133.802 211.296 133.62 211.109 133.422L211.015 133.323C210.833 133.12 210.687 132.896 210.562 132.667C209.953 131.526 210.093 130.11 211.354 128.828C211.76 128.417 212.203 128.052 212.677 127.729L212.791 127.662C213.223 127.37 213.687 127.104 214.161 126.87C214.26 126.818 214.369 126.781 214.468 126.735C214.906 126.531 215.348 126.344 215.802 126.177C215.874 126.151 215.953 126.13 216.026 126.104C216.531 125.927 217.041 125.766 217.552 125.62C217.505 125.235 217.463 124.844 217.437 124.485C217.197 124.563 216.968 124.651 216.734 124.735V124.724C216.677 124.745 216.619 124.771 216.567 124.792C216.031 124.985 215.505 125.198 214.989 125.438C214.869 125.49 214.744 125.526 214.624 125.589C213.333 126.208 211.749 127.177 210.52 128.318C210.453 128.38 210.39 128.448 210.322 128.511C210.213 128.615 210.104 128.724 209.999 128.833C209.906 128.938 209.817 129.047 209.723 129.151C209.661 129.224 209.604 129.292 209.546 129.37C209.447 129.495 209.354 129.615 209.27 129.745L209.166 129.896C209.078 130.047 208.989 130.193 208.911 130.339L208.901 130.37C208.64 130.896 208.505 131.432 208.526 131.969V132.021C208.536 132.177 208.567 132.328 208.604 132.485L208.64 132.625C208.682 132.771 208.744 132.917 208.812 133.063L208.838 133.13L208.927 133.287L208.979 133.37C209.031 133.453 209.083 133.531 209.145 133.615L209.182 133.667C209.255 133.766 209.343 133.86 209.432 133.958L209.562 134.089L209.666 134.198L209.697 134.235C209.911 134.427 210.145 134.625 210.421 134.813C210.598 134.932 210.802 135.047 211.02 135.151L211.072 135.177L211.093 135.182L211.249 135.25C211.406 135.323 211.567 135.391 211.744 135.453L211.911 135.505L212.052 135.552C212.223 135.61 212.395 135.662 212.583 135.708C212.635 135.724 212.692 135.74 212.744 135.75L212.786 135.766C212.838 135.776 212.89 135.787 212.947 135.802C213.135 135.849 213.328 135.891 213.531 135.927C213.661 135.958 213.796 135.985 213.932 136.005C214.14 136.042 214.364 136.078 214.583 136.11C214.723 136.13 214.854 136.146 214.994 136.167C215.255 136.198 215.526 136.229 215.796 136.25C215.911 136.266 216.02 136.276 216.14 136.287C216.526 136.318 216.921 136.344 217.328 136.365C217.463 136.37 217.604 136.37 217.734 136.375C218.015 136.391 218.302 136.396 218.588 136.401C218.661 136.401 218.734 136.406 218.807 136.406C218.895 137.099 218.984 137.792 219.072 138.516C224.166 140.958 229.677 142.391 235.328 143.198C235.135 141.662 234.953 140.208 234.781 138.828C231.145 138.271 227.572 137.422 224.177 136.146C224.249 136.136 224.322 136.13 224.395 136.125C226.177 135.938 227.958 135.651 229.671 135.276L229.718 135.266C229.802 135.25 229.88 135.229 229.963 135.214C230.359 135.125 230.749 135.031 231.135 134.927L231.26 134.896C231.374 134.87 231.479 134.839 231.583 134.807C232.213 134.641 232.812 134.453 233.401 134.255C233.567 134.198 233.739 134.146 233.906 134.083C233.994 134.052 234.088 134.026 234.177 133.995C238.052 132.573 240.744 130.531 240.593 127.901V127.849Z" fill="#40AC9D"/>
<mask id="mask1_3264_787" style="mask-type:luminance" maskUnits="userSpaceOnUse" x="154" y="104" width="152" height="248">
<path d="M154.166 104.583H305.765V351.797H154.166V104.583Z" fill="white"/>
</mask>
<g mask="url(#mask1_3264_787)">
<path d="M301.562 191.094C298.359 194.396 294.744 197.292 291.046 200.016C284.921 204.521 278.15 208.104 271.234 211.224C256.046 218.073 239.281 221.63 222.676 222.297C209.182 222.833 195.307 220.557 182.411 216.625C175.161 214.417 168.197 211.094 162.629 205.885C158.182 201.724 154.786 194.729 155.775 188.667C157.088 192.385 161.228 195.635 163.958 197.818C170.27 202.859 178.275 205.927 185.932 208.234C199.744 212.396 215.385 212.26 229.588 211.083C248.385 209.531 266.322 204.604 282.801 195.391C289.161 191.833 295.254 187.526 300.379 182.328C301.39 181.302 303.072 179.708 303.9 178.073C305.307 182.552 304.744 187.813 301.562 191.094ZM300.52 287.349C300.4 293.042 300.234 298.74 299.963 304.427C299.598 312.26 299.911 319.661 292.202 324.172C292.036 324.271 291.932 324.448 291.932 324.641C292.036 332.083 289.228 335.714 282.879 339.266C276.004 343.12 268.671 345.458 260.937 346.745C250.775 348.432 211.385 357.844 213.598 337.891C213.619 337.672 213.416 337.406 213.202 337.37C198.301 334.813 194.827 317.641 191.15 305.443C187.109 292.031 183.228 278.573 179.353 265.115C173.781 245.771 168.27 226.406 162.817 207.026C165.218 209.37 167.822 211.344 170.244 212.729C185.301 221.328 205.598 223.76 222.676 223.37C242.989 222.901 263.343 217.13 281.171 207.51C286.749 204.5 295.239 199.833 300.525 194.443C300.765 211.578 300.869 228.719 300.874 245.865C300.885 259.693 300.807 273.521 300.52 287.349ZM159.921 181.547C163.499 194.073 177.447 198.411 188.692 201.219C206.015 205.552 224.619 204.99 242.129 202.182C253.531 200.349 264.004 196.708 274.39 191.724C283.515 187.349 295.036 181.286 299.65 171.682C301.213 172.885 302.452 174.563 303.301 176.484C303.124 178.917 299.463 181.76 297.921 183.245C292.739 188.234 286.494 192.094 280.239 195.589C265.254 203.969 248.687 207.974 231.723 209.807C220.004 211.073 208.567 210.474 196.89 209.401C189.286 208.708 181.728 206.057 174.812 202.964C169.775 200.719 156.119 193.661 156.39 186.38C157.067 184.594 158.218 182.948 159.921 181.547ZM299.978 170.583C295.317 152.146 288.369 137.745 272.124 127.036C260.353 119.286 246.103 115.719 232.051 115.563C231.952 115.563 231.864 115.557 231.77 115.552V115.557C231.682 115.552 231.598 115.552 231.51 115.547C231.353 114.536 231.197 113.521 231.036 112.51C225.129 110.911 219.494 108.479 214.541 104.984C215.057 106.911 215.447 108.901 215.781 110.88C220.723 113.729 226.145 115.734 231.754 117.099C231.723 116.911 231.697 116.714 231.666 116.526C231.786 116.526 231.906 116.526 232.025 116.531L232.031 116.542C245.312 116.609 258.536 120.328 269.984 126.984C286.958 136.849 294.26 152.448 298.906 170.776C294.89 179.542 285.145 184.885 276.989 189.214C269.296 193.297 260.921 196.984 252.406 199.005C235.885 202.927 218.869 204.115 201.978 202.422C187.853 201.01 164.848 197 160.754 180.594C161.244 170.708 163.978 161.516 168.411 153.354L168.484 153.229C168.9 152.469 169.327 151.714 169.775 150.974C169.833 150.88 169.89 150.786 169.947 150.693C170.359 150.01 170.786 149.328 171.228 148.656C171.317 148.521 171.416 148.38 171.51 148.24C171.921 147.625 172.338 147.016 172.77 146.411C172.9 146.229 173.036 146.052 173.166 145.875C173.567 145.323 173.978 144.776 174.395 144.24C174.567 144.021 174.744 143.802 174.916 143.589C175.307 143.099 175.702 142.615 176.103 142.135C176.322 141.885 176.536 141.635 176.754 141.385C177.129 140.958 177.51 140.526 177.895 140.104C178.15 139.823 178.416 139.547 178.676 139.271C179.031 138.896 179.39 138.516 179.754 138.151C180.057 137.844 180.364 137.542 180.671 137.24C181.01 136.917 181.348 136.589 181.692 136.266C182.041 135.938 182.395 135.615 182.754 135.297C183.062 135.016 183.374 134.74 183.692 134.464C184.093 134.12 184.494 133.781 184.9 133.443C185.187 133.203 185.468 132.974 185.76 132.74C186.208 132.38 186.661 132.026 187.119 131.672C187.374 131.479 187.624 131.286 187.885 131.099C188.385 130.724 188.89 130.359 189.4 130C189.624 129.844 189.848 129.688 190.072 129.531C190.624 129.156 191.176 128.781 191.739 128.417C191.926 128.292 192.124 128.172 192.312 128.047C192.916 127.667 193.52 127.292 194.135 126.927C194.291 126.833 194.452 126.74 194.609 126.651C195.26 126.266 195.921 125.896 196.583 125.531C196.708 125.469 196.833 125.401 196.958 125.333C197.656 124.958 198.364 124.589 199.077 124.234C199.166 124.193 199.26 124.146 199.353 124.099C200.098 123.734 200.853 123.375 201.614 123.036C201.676 123.005 201.734 122.979 201.791 122.958C202.588 122.599 203.385 122.26 204.197 121.932L204.281 121.901C207.682 120.526 211.197 119.396 214.801 118.536C215.478 118.375 216.15 118.214 216.833 118.073L216.775 117.51C216.749 117.286 216.708 117.052 216.676 116.828C215.942 116.969 215.213 117.13 214.489 117.297V117.292L214.385 117.318C213.64 117.49 212.906 117.672 212.171 117.87C211.984 117.917 211.791 117.964 211.609 118.016C210.9 118.208 210.202 118.411 209.504 118.63C209.291 118.693 209.077 118.755 208.864 118.823C208.197 119.036 207.536 119.26 206.879 119.495C206.64 119.573 206.4 119.656 206.161 119.745C205.525 119.974 204.9 120.214 204.275 120.464C204.015 120.563 203.754 120.667 203.499 120.771C202.9 121.016 202.307 121.271 201.713 121.531C201.437 121.656 201.156 121.776 200.879 121.901C200.312 122.161 199.749 122.432 199.192 122.703C198.895 122.844 198.603 122.99 198.312 123.141C197.775 123.406 197.239 123.688 196.713 123.974C196.406 124.141 196.098 124.302 195.791 124.474C195.286 124.755 194.786 125.047 194.286 125.339C193.963 125.526 193.645 125.714 193.327 125.906C192.848 126.198 192.379 126.495 191.906 126.792C191.577 127.005 191.249 127.219 190.921 127.438C190.473 127.734 190.031 128.036 189.588 128.344C189.249 128.578 188.911 128.818 188.577 129.057C188.156 129.359 187.739 129.672 187.322 129.984C186.978 130.24 186.64 130.505 186.301 130.771C185.906 131.078 185.515 131.391 185.124 131.708C184.775 131.99 184.432 132.281 184.093 132.568C183.723 132.88 183.353 133.198 182.989 133.521C182.64 133.828 182.296 134.141 181.952 134.458C181.609 134.771 181.265 135.083 180.932 135.406C180.577 135.745 180.234 136.083 179.885 136.427C179.567 136.745 179.249 137.057 178.942 137.375C178.588 137.74 178.244 138.109 177.9 138.479C177.609 138.792 177.317 139.104 177.031 139.422C176.682 139.813 176.338 140.208 175.994 140.609C175.728 140.917 175.458 141.229 175.197 141.542C174.848 141.964 174.51 142.391 174.171 142.818C173.932 143.12 173.687 143.422 173.452 143.734C173.109 144.182 172.775 144.641 172.442 145.099C172.223 145.396 172.004 145.693 171.791 145.995C171.452 146.474 171.124 146.964 170.796 147.453C170.603 147.745 170.411 148.031 170.218 148.323C169.89 148.839 169.567 149.359 169.249 149.885C169.083 150.161 168.911 150.438 168.744 150.714C168.416 151.271 168.103 151.833 167.791 152.401C167.65 152.651 167.504 152.906 167.369 153.161C167.041 153.771 166.728 154.385 166.426 155.005C166.317 155.229 166.202 155.448 166.093 155.667C165.765 156.344 165.452 157.031 165.15 157.719C165.072 157.891 164.994 158.057 164.921 158.224C164.593 158.995 164.275 159.766 163.973 160.542C163.937 160.641 163.895 160.74 163.853 160.839C161.499 166.995 160.046 173.547 159.682 180.349C150.046 187.688 154.546 198.318 161.656 205.844C161.525 205.958 161.447 206.13 161.51 206.349C171.984 243.563 182.02 281.005 193.848 317.813C195.364 322.531 197.343 326.672 200.406 330.63C201.999 332.693 203.963 334.328 206.062 335.844C210.088 338.76 211.895 337.526 212.473 343.188C213.89 357.073 245.629 350.281 253.463 349.068C262.499 347.661 270.932 346.068 279.275 342.245C285.114 339.573 291.661 336.411 293.072 329.604C293.833 325.906 292.447 325.609 296.031 322.943C297.296 322 298.728 320.74 299.249 319.177C300.702 314.802 300.744 310.12 300.989 305.552C302.968 268.234 302.14 230.641 301.598 193.286C302.442 192.323 303.182 191.344 303.77 190.344C307.504 183.969 305.853 174.813 299.978 170.583Z" fill="#40AC9D"/>
</g>
<path d="M289.104 326.344C274.432 334.552 258.864 337.333 242.25 338.406C233.369 338.979 223.895 339.115 215.109 337.37C214.432 337.234 214.14 338.271 214.823 338.406C224.619 340.349 235.02 339.943 244.916 339.307C260.698 338.292 275.76 335.036 289.645 327.271C290.25 326.932 289.708 326.005 289.104 326.344Z" fill="#40AC9D"/>
<path d="M159.751 197.198C159.845 199.104 160.642 200.849 160.985 202.708C161.11 203.39 162.147 203.099 162.022 202.422C161.699 200.661 160.912 198.995 160.824 197.198C160.787 196.505 159.714 196.505 159.751 197.198Z" fill="#40AC9D"/>
<path d="M166.645 201.365C166.609 200.677 165.531 200.672 165.567 201.365C165.666 203.448 166.468 205.37 166.895 207.391C167.041 208.068 168.078 207.781 167.932 207.104C167.531 205.182 166.739 203.344 166.645 201.365Z" fill="#40AC9D"/>
<path d="M174.225 205.912C174.214 207.766 174.787 209.537 175.11 211.344C175.235 212.021 176.272 211.735 176.152 211.057C175.839 209.344 175.292 207.667 175.298 205.912C175.303 205.219 174.23 205.219 174.225 205.912Z" fill="#40AC9D"/>
<path d="M182.86 209.599C182.917 211.401 183.172 213.188 183.302 214.985C183.354 215.672 184.433 215.677 184.381 214.985C184.25 213.188 183.99 211.401 183.938 209.599C183.917 208.912 182.839 208.906 182.86 209.599Z" fill="#40AC9D"/>
<path d="M197.86 212.734C198.021 212.062 196.985 211.776 196.818 212.448C196.423 214.104 196.657 215.812 197.079 217.437C197.256 218.109 198.292 217.823 198.115 217.151C197.745 215.713 197.506 214.198 197.86 212.734Z" fill="#40AC9D"/>
<path d="M203.495 213.151C203.693 214.734 203.755 216.333 204.031 217.906C204.146 218.588 205.188 218.297 205.068 217.62C204.807 216.14 204.755 214.64 204.573 213.151C204.49 212.474 203.411 212.463 203.495 213.151Z" fill="#40AC9D"/>
<path d="M213.713 214.162C213.755 215.875 213.948 217.578 214.151 219.287C214.234 219.964 215.307 219.974 215.229 219.287C215.026 217.578 214.833 215.875 214.786 214.162C214.77 213.469 213.692 213.464 213.713 214.162Z" fill="#40AC9D"/>
<path d="M222.718 213.703C223.067 215.537 223.072 217.412 223.338 219.255C223.432 219.943 224.468 219.651 224.375 218.974C224.109 217.125 224.109 215.255 223.755 213.422C223.625 212.74 222.588 213.031 222.718 213.703Z" fill="#40AC9D"/>
<path d="M242.084 211.854C242.147 211.161 241.074 211.167 241.006 211.854C240.897 213.036 241.199 214.182 241.246 215.354C241.272 216.047 242.35 216.052 242.319 215.354C242.277 214.182 241.97 213.036 242.084 211.854Z" fill="#40AC9D"/>
<path d="M232.209 213.302C232.178 214.735 232.516 216.13 232.735 217.542C232.839 218.224 233.876 217.932 233.772 217.255C233.568 215.938 233.256 214.641 233.282 213.302C233.298 212.604 232.219 212.61 232.209 213.302Z" fill="#40AC9D"/>
<path d="M252.802 210.094C252.896 211.057 252.922 212.026 252.943 213C252.953 213.688 254.026 213.693 254.016 213C254 212.026 253.974 211.057 253.875 210.094C253.802 209.411 252.729 209.401 252.802 210.094Z" fill="#40AC9D"/>
<path d="M263.526 206.125C263.557 207.495 263.656 208.859 263.687 210.229C263.698 210.922 264.776 210.922 264.76 210.229C264.729 208.859 264.635 207.495 264.599 206.125C264.583 205.432 263.505 205.432 263.526 206.125Z" fill="#40AC9D"/>
<path d="M273.069 203.125C273.084 204.12 273.105 205.12 273.121 206.12C273.136 206.812 274.209 206.812 274.199 206.12C274.178 205.12 274.162 204.12 274.141 203.125C274.131 202.432 273.053 202.432 273.069 203.125Z" fill="#40AC9D"/>
<path d="M283.198 198.255C282.896 199.432 283.099 200.63 282.98 201.823C282.912 202.515 283.99 202.505 284.058 201.823C284.167 200.734 283.964 199.614 284.23 198.541C284.401 197.87 283.365 197.583 283.198 198.255Z" fill="#40AC9D"/>
<path d="M290.366 193.302C290.392 194.443 290.485 195.578 290.517 196.719C290.532 197.412 291.61 197.412 291.589 196.719C291.563 195.578 291.47 194.443 291.438 193.302C291.423 192.61 290.345 192.61 290.366 193.302Z" fill="#40AC9D"/>
<path d="M300.401 186.713C300.464 186.026 299.391 186.031 299.323 186.713C299.198 188.031 299.365 189.338 299.396 190.651C299.417 191.344 300.495 191.344 300.474 190.651C300.438 189.338 300.276 188.031 300.401 186.713Z" fill="#40AC9D"/>
<path d="M190.911 212.151C190.807 211.469 189.77 211.761 189.875 212.438C190.067 213.693 190.276 214.948 190.541 216.193C190.687 216.87 191.723 216.578 191.578 215.906C191.312 214.662 191.104 213.406 190.911 212.151Z" fill="#40AC9D"/>
<path d="M217.062 120.203C217.124 121.057 217.208 122.047 217.317 123.156C222.426 126.229 227.932 128.578 233.671 129.911C233.411 127.87 233.218 126.349 233.093 125.443C227.317 123.87 221.807 121.167 216.807 117.781L217.062 120.203Z" fill="#40AC9D"/>
<path d="M221.303 342.13C221.308 343.422 221.37 344.714 221.376 346C221.381 346.698 222.454 346.698 222.454 346C222.449 344.714 222.381 343.422 222.376 342.13C222.376 341.438 221.298 341.438 221.303 342.13Z" fill="#40AC9D"/>
<path d="M230.989 342.208C231.072 343.771 231.202 345.328 231.213 346.896C231.218 347.589 232.296 347.589 232.291 346.896C232.281 345.328 232.145 343.771 232.067 342.208C232.031 341.516 230.958 341.511 230.989 342.208Z" fill="#40AC9D"/>
<path d="M242.402 341.312C242.36 342.792 242.745 344.229 242.771 345.703C242.787 346.396 243.86 346.396 243.844 345.703C243.818 344.229 243.433 342.786 243.475 341.312C243.49 340.62 242.417 340.62 242.402 341.312Z" fill="#40AC9D"/>
<path d="M257.756 340.141C257.917 341.661 258.214 343.161 258.448 344.672C258.552 345.354 259.589 345.068 259.485 344.391C259.266 342.969 258.985 341.568 258.834 340.141C258.756 339.458 257.683 339.453 257.756 340.141Z" fill="#40AC9D"/>
<path d="M272.291 336.344C272.322 338.021 272.671 339.667 272.911 341.323C273.005 342.005 274.041 341.714 273.942 341.036C273.723 339.474 273.395 337.927 273.369 336.344C273.354 335.651 272.281 335.651 272.291 336.344Z" fill="#40AC9D"/>
<path d="M282.584 332.323C282.594 333.765 282.787 335.198 282.808 336.64C282.813 337.333 283.886 337.333 283.881 336.64C283.865 335.198 283.673 333.765 283.657 332.323C283.647 331.63 282.574 331.63 282.584 332.323Z" fill="#40AC9D"/>
<path d="M210.244 95.6875C211.38 97.1406 212.291 98.7604 213.031 100.5C218.301 101.224 223.718 101.13 228.989 100.26C228.791 99.1979 228.614 98.1354 228.406 97.0781C228.343 96.7552 228.239 96.4167 228.114 96.0677C222.192 97.0313 216.062 96.9375 210.244 95.6875Z" fill="#40AC9D"/>
<mask id="mask2_3264_787" style="mask-type:luminance" maskUnits="userSpaceOnUse" x="123" y="279" width="64" height="64">
<path d="M123.053 279.74H186.048V342.667H123.053V279.74Z" fill="white"/>
</mask>
<g mask="url(#mask2_3264_787)">
<path d="M183.786 321.474C182.39 319.422 181.854 316.948 180.453 314.901C180.01 314.271 179.515 313.703 178.969 313.167C177.109 311.271 174.807 309.886 172.578 308.334C174.989 305.459 176.203 301.964 176.786 298.256C177.047 296.302 176.906 294.198 177.599 292.089C178.015 290.547 180.239 288.578 179.963 286.901C179.239 283.688 177.724 286.073 176.047 286.641C173.672 287.349 171.151 287.068 168.771 287.776C165.443 288.839 162.88 291.146 160.099 293.256C158.135 290.073 155.187 287.839 151.844 286.136C150.078 285.271 148.036 284.761 146.255 283.453C144.916 282.578 143.734 279.839 142.047 279.594C138.776 279.287 140.573 281.474 140.588 283.24C140.526 285.735 139.5 288.042 139.437 290.516C139.406 294.042 140.807 297.193 141.937 300.485C138.318 301.381 135.291 303.5 132.635 306.151C131.271 307.578 130.166 309.365 128.37 310.657C127.125 311.657 124.161 311.948 123.411 313.469C122.094 316.5 124.729 315.474 126.422 315.995C128.755 316.823 130.64 318.516 132.974 319.349C136.307 320.459 139.729 320.084 143.198 320.026C142.922 323.766 144.01 327.302 145.698 330.657C146.635 332.396 147.984 334.011 148.661 336.12C149.229 337.61 148.583 340.516 149.797 341.703C152.255 343.901 152.104 341.073 153.114 339.625C154.62 337.657 156.812 336.381 158.318 334.412C160.406 331.594 161.125 328.209 162.125 324.87C163.552 325.453 165.01 325.808 166.484 325.979C168.62 326.24 170.797 326.12 172.979 325.766C174.927 325.427 176.875 324.641 179.088 324.641C179.286 324.625 179.515 324.641 179.745 324.688C180.13 324.75 180.547 324.839 180.974 324.964C182.312 325.334 183.755 325.808 184.75 325.287C187.578 323.625 184.844 322.901 183.786 321.474Z" fill="#DEB42E"/>
</g>
<mask id="mask3_3264_787" style="mask-type:luminance" maskUnits="userSpaceOnUse" x="313" y="279" width="65" height="64">
<path d="M313.553 279.74H377.053V342.667H313.553V279.74Z" fill="white"/>
</mask>
<g mask="url(#mask3_3264_787)">
<path d="M376.213 316.406C374.995 317.594 372.109 316.86 370.609 317.386C368.479 317.995 366.833 319.297 365.062 320.182C361.682 321.792 358.125 322.761 354.401 322.386C354.37 325.87 354.63 329.313 353.422 332.61C352.531 334.922 350.781 336.755 349.885 339.073C349.307 340.75 350.26 343.417 347.281 342.011C345.781 341.214 345.588 338.24 344.63 336.969C343.385 335.136 341.64 333.969 340.26 332.552C337.687 329.823 335.661 326.735 334.87 323.068C331.557 324.11 328.37 325.422 324.87 325.292C322.39 325.156 320.114 324.052 317.64 323.917C315.875 323.886 313.63 325.615 314.047 322.344C314.338 320.667 317.099 319.563 318.01 318.255C319.37 316.505 319.932 314.479 320.854 312.724C322.646 309.432 324.953 306.542 328.187 304.656C326.172 301.818 323.942 299.188 322.984 295.807C322.349 293.406 322.692 290.901 322.052 288.5C321.541 286.802 319.203 285.198 322.432 284.584C324.114 284.349 326.015 286.641 327.541 287.099C329.62 287.854 331.719 287.771 333.666 288.104C337.344 288.792 340.797 290.099 343.588 292.599C345.364 290.198 347.067 287.13 350.375 284.906C352.453 283.557 354.948 283.104 357.026 281.761C358.474 280.745 359.276 278.021 360.854 280.917C361.599 282.443 360.015 284.964 360.052 286.563C359.974 288.771 360.703 290.75 360.995 292.709C361.474 296.427 361.297 300.125 359.786 303.557C363.078 304.667 366.427 305.479 369.187 307.651C371.109 309.219 372.302 311.448 374.229 313.016C375.635 314.084 378.463 314.005 376.213 316.406Z" fill="#DEB42E"/>
</g>
<path d="M305.855 319.396C306.115 318.349 306.36 317.443 306.625 316.641C305.719 315.854 304.599 315.24 303.474 315.38C303.063 315.438 302.969 315.948 303.261 316.224C295.079 312.745 281.125 311.719 273.11 313.547C263.808 315.703 254.276 317.995 246.313 323.563C243.547 325.516 240.756 327.563 238.282 329.917C237.547 326.813 236.042 329.151 234.381 329.719C232.006 330.412 229.485 330.146 227.105 330.854C223.776 331.917 221.214 334.224 218.433 336.334C216.469 333.146 213.521 330.917 210.178 329.209C208.407 328.349 206.365 327.839 204.589 326.531C203.25 325.656 202.068 322.917 200.381 322.672C200.23 322.656 200.073 322.656 199.954 322.656C197.282 322.563 198.907 324.625 198.922 326.318C198.86 328.813 197.834 331.12 197.771 333.594C197.74 337.12 199.136 340.271 200.271 343.563C196.651 344.459 193.625 346.578 190.969 349.224C190.756 349.459 190.542 349.703 190.308 349.948C189.219 351.224 188.209 352.656 186.704 353.735C185.459 354.735 182.495 355.026 181.745 356.552C180.428 359.584 183.063 358.547 184.756 359.073C187.089 359.901 188.974 361.594 191.308 362.427C194.641 363.531 198.063 363.167 201.532 363.104C201.256 366.844 202.344 370.38 204.032 373.735C204.969 375.474 206.323 377.089 206.995 379.198C207.563 380.688 206.922 383.594 208.131 384.781C210.589 386.979 210.433 384.151 211.448 382.703C212.954 380.735 215.146 379.459 216.651 377.49C218.74 374.672 219.464 371.287 220.459 367.948C223.928 369.365 227.61 369.443 231.313 368.844C233.261 368.505 235.214 367.719 237.422 367.719C238.188 367.688 239.188 368.011 240.172 368.287C240.292 368.688 240.433 369.104 240.599 369.547C241.917 372.875 245.745 375.808 245.745 375.808C256.672 388.24 264.5 385.735 277.167 378.917C285.5 374.334 292.24 369.688 298.808 362.901C303.599 357.688 306.334 351.948 308.693 345.735C307.683 345.427 306.62 345.058 305.485 344.594C300.99 342.828 301.219 337.917 302.11 333.839C303.151 329.058 304.568 324.209 305.855 319.396Z" fill="#DEB42E"/>
<path d="M190.969 349.224C190.755 349.458 190.542 349.703 190.313 349.948C189.235 349.537 188.162 349.151 187.104 348.797C183.479 347.5 179.87 346.245 176.479 344.427C175.005 343.703 173.714 343.011 172.537 342.255C169.787 340.516 167.667 338.516 165.318 335.49C162.755 332.287 164.276 328.839 166.485 325.979C168.62 326.24 170.797 326.12 172.979 325.766C174.927 325.427 176.88 324.641 179.089 324.641C180.682 324.563 183.25 326.089 184.755 325.287C187.578 323.625 184.844 322.901 183.787 321.474C182.391 319.427 181.854 316.948 180.453 314.901C180.011 314.271 179.516 313.703 178.969 313.167C181.651 310.458 183.219 309.438 187.61 309.932C191.735 310.396 194.36 311.516 196.849 314.828C198.646 317.177 199.427 319.87 199.948 322.656C197.276 322.563 198.906 324.625 198.922 326.318C198.86 328.813 197.834 331.12 197.771 333.594C197.74 337.12 199.136 340.271 200.271 343.563C196.651 344.458 193.625 346.578 190.969 349.224Z" fill="#BD1B33"/>
<path d="M341.208 332.979C339.672 328.443 336.463 324.578 333.286 321.073C333.24 321.01 333.182 320.964 333.135 320.901C331.156 318.75 329.448 316.333 327.391 314.302C325.963 312.87 324.37 311.641 322.401 310.839C318.599 309.24 315.755 309.594 311.963 311.271C307.573 313.193 306.943 315.01 305.854 319.396C304.568 324.208 303.151 329.057 302.109 333.839C301.219 337.917 300.99 342.828 305.49 344.594C309.047 346.026 311.885 346.687 315.125 346.807C316.521 346.859 317.979 346.807 319.625 346.703C323.479 346.562 327.224 345.839 331 345.13C332.182 344.891 333.396 344.672 334.609 344.474L336.818 344.365C341.87 343.135 342.573 337.224 341.208 332.979Z" fill="#BD1B33"/>
<path d="M305.469 315.672C289.324 307.177 265.344 310.828 250.058 319.531C243.641 323.177 235.745 328.38 232.006 335.286C231.454 336.286 231.006 337.318 230.652 338.38C229.98 340.443 229.344 342.901 229.178 345.365C228.886 349.38 229.745 353.365 233.261 355.521C233.553 355.703 233.844 355.594 234.011 355.38C234.001 355.703 233.985 356.01 234.011 356.333C234.199 359.135 235.35 360.214 237.699 361.411C238.235 361.688 238.683 360.932 238.172 360.609C233.631 357.672 237.714 350.859 239.693 347.75C239.709 347.734 239.709 347.734 239.709 347.719C254.506 326.594 281.016 322.781 304.98 322.609C305.271 321.531 305.563 320.474 305.855 319.396V319.38C293.761 316.979 278.714 320.687 267.631 324.75C255.183 329.318 245.313 335.411 237.714 346.49C237.699 346.521 237.667 346.536 237.652 346.547C236.209 348.875 234.475 351.766 234.089 354.656C224.126 336.135 248.829 321.583 263.365 317.578C277.271 313.766 290.704 312.781 304.365 318.318C305.902 318.948 306.917 316.427 305.469 315.672Z" fill="#9DA421"/>
<path d="M303.63 327.609C303.969 326.333 304.318 325.042 304.672 323.766C292.406 327.87 280.589 334.625 269.521 341.026C259.219 346.979 247.828 352.766 239.005 360.839C238.156 361.625 239.281 363.135 240.234 362.458C260 348.255 282.135 338.594 303.63 327.609Z" fill="#9DA421"/>
<path d="M310.552 346.224C309.63 346.01 308.692 345.75 307.729 345.427C303.078 356.474 294.437 366.182 284.885 372.411C279.005 376.239 272.25 380.859 265.343 382.515C258.052 384.271 252.817 381.474 247.505 377.12C248.411 377.474 249.333 377.781 250.255 377.979C258.13 379.75 267.229 374.026 273.463 369.948C284.333 362.859 294.817 353.239 302.494 342.057C301.51 340.302 301.448 338.042 301.755 335.823C296.812 343.703 291.854 351.396 284.5 357.875C275.401 365.87 243.776 389.458 240.401 363.844C240.307 363.104 239.234 362.823 239.015 363.656C237.651 368.901 240.724 373.255 244.958 375.828C244.895 375.963 244.88 376.12 245.005 376.271C256.349 391.364 270.718 385.302 284.453 376.489C292.791 371.135 301.265 364.687 305.963 355.719C307.494 352.797 309.14 349.578 310.552 346.224Z" fill="#9DA421"/>
<path d="M193.666 371.068C188.244 367.485 186.218 361.86 182.666 356.906C181.229 363.703 177.916 372.86 171.432 376.516C170.119 368.235 173.598 359.703 175.463 351.807C172.322 352.417 169.166 353.448 166.093 354.636C162.848 355.912 158.536 358.578 154.869 358.438C157.416 350.521 164.473 344.604 172.26 342.276C172.26 342.276 172.369 342.276 172.541 342.255C173.718 343.005 175.005 343.693 176.484 344.427C179.88 346.245 183.489 347.505 187.104 348.792C192.14 353.052 190.656 359.938 193.869 365.735C195.218 368.052 199.02 374.474 193.666 371.068Z" fill="#9DA421"/>
<path d="M347.844 361.078C341.355 360.714 336.782 356.87 331.235 354.375C333.396 360.974 335.12 370.557 331.35 376.979C326.063 370.479 324.792 361.359 322.448 353.589C320.032 355.703 317.823 358.177 315.761 360.755C313.594 363.49 311.204 367.969 307.959 369.693C306.193 361.568 309.334 352.891 314.896 346.964C314.896 346.964 314.99 346.906 315.131 346.807C316.527 346.859 317.985 346.812 319.631 346.703C323.475 346.562 327.23 345.833 331.001 345.125C337.495 346.276 339.662 352.974 345.344 356.37C347.672 357.688 354.183 361.333 347.844 361.078Z" fill="#9DA421"/>
<path d="M182.624 317.136C182.353 318.058 181.01 317.672 181.202 316.745C181.406 315.75 182.098 314.568 183.171 314.433C183.577 314.38 183.88 314.87 183.77 315.224C183.551 315.953 182.848 316.37 182.624 317.136Z" fill="#F5EFD9"/>
<path d="M188.688 319.448C188.75 318.578 188.833 317.484 189.354 316.771C189.578 316.469 190.13 316.443 190.224 316.88C190.411 317.755 190.099 318.766 189.828 319.599C189.635 320.198 188.635 320.13 188.688 319.448Z" fill="#F5EFD9"/>
<path d="M194.756 324.25C194.725 323.474 194.428 322.667 194.516 321.896C194.558 321.526 195.027 321.214 195.324 321.562C195.949 322.281 196.001 323.333 195.944 324.25C195.891 325.016 194.787 325.026 194.756 324.25Z" fill="#F5EFD9"/>
<path d="M179.474 325.365C179.532 325.177 179.625 324.948 179.75 324.688C180.136 324.75 180.547 324.839 180.974 324.964C180.745 325.255 180.532 325.563 180.302 325.844C179.995 326.208 179.302 325.807 179.474 325.365Z" fill="#F5EFD9"/>
<path d="M189.001 330.818C188.839 329.922 188.615 328.922 189.245 328.172C189.495 327.88 190.079 327.948 190.245 328.302C190.542 328.948 190.449 329.688 190.563 330.386C190.725 331.406 189.183 331.854 189.001 330.818Z" fill="#F5EFD9"/>
<path d="M172.641 328.719C172.859 328.703 173.016 328.906 173.026 329.104C173.068 329.864 172.276 330.698 171.807 331.245C171.474 331.635 170.714 331.213 170.917 330.724C171.229 329.958 171.708 328.792 172.641 328.719Z" fill="#F5EFD9"/>
<path d="M181.756 332.86C182.183 332.219 183.027 332.651 182.933 333.36C182.845 333.969 182.631 334.511 182.417 335.084C182.063 336.005 180.579 335.604 180.933 334.677C181.173 334.047 181.386 333.427 181.756 332.86Z" fill="#F5EFD9"/>
<path d="M193.104 340.344C193.031 339.714 192.619 338.985 193.01 338.406C193.119 338.245 193.322 338.13 193.525 338.198C194.385 338.474 194.546 339.563 194.64 340.344C194.76 341.323 193.223 341.313 193.104 340.344Z" fill="#F5EFD9"/>
<path d="M173.885 322.516C169.297 322.031 161.474 323.49 157.869 319.677C157.739 319.99 157.63 320.313 157.484 320.625C156.619 322.448 155.276 324.057 154.239 325.776C153.145 327.604 153.099 329.922 152.448 331.938C152.229 332.61 151.349 332.292 151.229 331.745C150.708 329.36 150.291 327.052 149.026 324.891C148.427 323.88 147.786 322.776 147.52 321.625C147.234 320.365 147.145 319.089 147.182 317.813C145.302 317.99 143.182 318.146 141.515 317.427C138.901 316.292 136.213 315.365 133.552 314.349C132.786 314.052 132.979 313.057 133.588 312.745C138.239 310.354 142.406 305.391 147.76 305.245C146.474 304.115 145.604 302.438 145.255 300.813C144.859 298.958 145 297.37 145.359 295.526C145.797 293.287 144.739 291.511 144.77 289.344C144.776 288.833 145.156 288.245 145.76 288.391C149.5 289.281 153.604 292.438 156.229 295.167C157.198 296.177 157.849 297.422 158.182 298.74C159.041 297.906 160.036 297.198 161.13 296.641C163.057 295.651 164.682 295.146 166.843 295.073C169.526 294.974 170.916 293.167 173.182 292.229C173.625 292.042 174.192 292.36 174.224 292.854C174.479 296.75 172.442 300.511 169.963 303.37C168.979 304.511 167.369 305.886 165.666 306.599C167.208 307.396 168.536 308.656 169.672 310.151C170.786 311.604 171.708 313.417 172.307 315.136C173.01 317.172 172.63 319.583 174.557 320.99C175.286 321.526 174.682 322.594 173.885 322.516Z" fill="#F5EFD9"/>
<path d="M232.895 364.073C230.957 362.656 231.343 360.255 230.635 358.214C230.036 356.505 229.114 354.687 228.01 353.224C226.859 351.734 225.541 350.474 224.004 349.672C225.707 348.964 227.306 347.594 228.286 346.443C228.593 346.104 228.885 345.734 229.176 345.365C229.348 342.901 229.978 340.443 230.65 338.38C231.004 337.318 231.452 336.286 232.004 335.286C231.832 335.24 231.666 335.24 231.51 335.302C229.239 336.24 227.859 338.057 225.171 338.146C223.004 338.224 221.395 338.734 219.463 339.719C218.369 340.271 217.374 340.979 216.515 341.823C216.176 340.505 215.53 339.255 214.562 338.24C211.937 335.516 207.822 332.365 204.093 331.474C203.478 331.333 203.114 331.917 203.098 332.422C203.067 334.594 204.124 336.365 203.697 338.609C203.327 340.443 203.187 342.042 203.588 343.885C203.942 345.516 204.801 347.193 206.088 348.318C200.734 348.474 196.572 353.427 191.921 355.828C191.306 356.135 191.124 357.135 191.89 357.427C194.546 358.443 197.234 359.365 199.843 360.5C201.515 361.224 203.635 361.073 205.504 360.885C205.473 362.167 205.567 363.443 205.859 364.703C206.119 365.854 206.765 366.948 207.348 367.964C208.624 370.135 209.036 372.443 209.562 374.823C209.681 375.365 210.556 375.687 210.786 375.01C211.431 372.995 211.478 370.687 212.567 368.859C213.609 367.13 214.947 365.531 215.822 363.703C215.963 363.396 216.067 363.073 216.207 362.75C219.812 366.562 227.624 365.104 232.218 365.594C233.015 365.672 233.614 364.609 232.895 364.073Z" fill="#F5EFD9"/>
<path d="M365.016 316.797C360.474 317.625 353.38 321.24 348.854 318.594C348.807 318.932 348.807 319.271 348.745 319.609C348.438 321.609 347.594 323.521 347.073 325.474C346.536 327.536 347.146 329.766 347.089 331.885C347.073 332.594 346.135 332.531 345.859 332.042C344.693 329.901 343.646 327.812 341.823 326.088C340.964 325.286 340.042 324.411 339.458 323.38C338.828 322.255 338.401 321.057 338.073 319.807C336.557 320.411 334.87 321.042 333.286 321.073C333.24 321.01 333.182 320.963 333.135 320.901C331.156 318.75 329.448 316.333 327.391 314.302C329.589 311.469 331.828 308.656 335.099 307.594C333.547 306.87 332.245 305.5 331.443 304.042C330.557 302.38 330.245 300.812 330.078 298.932C329.865 296.672 328.344 295.255 327.776 293.177C327.635 292.687 327.839 292.01 328.453 291.979C332.292 291.781 337.109 293.656 340.396 295.531C341.609 296.224 342.589 297.24 343.281 298.411C343.865 297.365 344.63 296.411 345.521 295.562C347.089 294.073 348.516 293.135 350.557 292.453C353.104 291.609 353.932 289.474 355.839 287.948C356.219 287.641 356.854 287.776 357.021 288.239C358.354 291.917 357.448 296.088 355.885 299.547C355.255 300.917 354.104 302.687 352.656 303.854C354.365 304.177 355.99 305.026 357.51 306.13C358.984 307.208 360.38 308.687 361.422 310.182C362.682 311.932 362.99 314.349 365.229 315.146C366.078 315.458 365.802 316.656 365.016 316.797Z" fill="#F5EFD9"/>
<path d="M247.402 330.11C247.407 330.115 247.412 330.12 247.418 330.12C244.787 331.766 242.324 334.089 240.178 336.323C237.391 339.219 236.121 342.516 234.371 346.031C233.996 346.797 232.678 346.448 232.74 345.589C233.287 338.584 240.751 331.875 246.636 328.933C247.152 328.677 247.647 329 247.709 329.547C247.709 329.568 247.709 329.584 247.714 329.604C247.735 329.823 247.589 330.011 247.402 330.11Z" fill="#F5EFD9"/>
<path d="M239.484 356.938C239.374 357.906 238.077 357.917 237.973 356.938C237.421 351.662 242.76 346.313 246.791 343.677C247.395 343.276 248.244 344.083 247.812 344.693C244.905 348.75 240.098 351.578 239.484 356.938Z" fill="#F5EFD9"/>
<path d="M246.141 372.87C244.969 372.469 245.443 370.635 246.657 370.995C251.657 372.469 255.474 369.177 260.125 368.312C260.881 368.166 261.714 369.161 260.969 369.755C257.188 372.755 250.776 374.469 246.141 372.87Z" fill="#F5EFD9"/>
<path d="M268.204 379.255C264.912 381.401 260.943 381.354 257.146 381.177C255.881 381.12 255.87 379.219 257.146 379.208C260.73 379.182 264.136 378.589 267.646 377.911C268.454 377.76 268.923 378.792 268.204 379.255Z" fill="#F5EFD9"/>
<path d="M311.255 320C311.479 320.932 310.13 321.297 309.833 320.396C309.541 319.521 309.479 318.151 310.244 317.495C310.567 317.219 311.203 317.271 311.291 317.771C311.421 318.526 311.067 319.229 311.255 320Z" fill="#F5EFD9"/>
<path d="M317.657 318.958C317.277 318.172 316.803 317.193 316.897 316.302C316.933 315.927 317.397 315.63 317.704 315.969C318.298 316.625 318.537 317.651 318.72 318.505C318.855 319.125 317.964 319.578 317.657 318.958Z" fill="#F5EFD9"/>
<path d="M325.317 320.057C324.875 319.359 324.182 318.792 323.875 318.026C323.739 317.687 324.14 317.349 324.458 317.443C325.354 317.713 325.942 318.656 326.338 319.458C326.677 320.141 325.729 320.708 325.317 320.057Z" fill="#F5EFD9"/>
<path d="M313.609 328.714C313.536 329.188 312.734 329.182 312.655 328.714C312.515 327.839 312.218 325.969 313.39 325.656C313.609 325.599 313.775 325.734 313.853 325.922C314.01 326.287 313.89 326.703 313.822 327.078C313.718 327.62 313.687 328.172 313.609 328.714Z" fill="#F5EFD9"/>
<path d="M323.619 328.625C323.036 327.932 322.343 327.182 322.52 326.213C322.593 325.828 323.135 325.609 323.453 325.833C324.031 326.239 324.322 326.937 324.765 327.474C325.416 328.276 324.302 329.427 323.619 328.625Z" fill="#F5EFD9"/>
<path d="M307.927 337.515C307.829 336.765 307.704 335.64 308.36 335.109C308.542 334.958 308.829 334.953 308.959 335.187C309.349 335.885 309.105 336.901 308.974 337.656C308.86 338.307 307.995 338.057 307.927 337.515Z" fill="#F5EFD9"/>
<path d="M318.589 336.037C318.48 335.37 318.355 334.724 318.391 334.042C318.438 333.281 319.386 333.214 319.652 333.87C319.886 334.443 319.975 335.021 320.074 335.63C320.235 336.599 318.751 337.016 318.589 336.037Z" fill="#F5EFD9"/>
<path d="M331.239 332.729C332.077 332.464 332.848 333.443 333.281 334.021C333.874 334.823 332.541 335.589 331.952 334.797C331.541 334.245 330.791 333.823 330.921 333.047C330.947 332.896 331.098 332.776 331.239 332.729Z" fill="#F5EFD9"/>
<path d="M152.772 319.636C153.115 319.349 153.095 318.636 153.115 318.235C153.131 317.797 153.095 317.354 153.069 316.912C152.746 317.719 152.506 318.578 152.444 319.323C152.418 319.599 152.428 319.922 152.772 319.636ZM152.022 320.235C151.407 319.761 151.944 318.349 152.115 317.807C152.355 317.068 152.652 316.25 153.058 315.547C153.063 315.547 153.058 315.542 153.063 315.537C153.079 315.349 153.188 315.219 153.319 315.141C153.329 315.125 153.339 315.104 153.355 315.089C153.511 314.875 153.824 314.969 153.886 315.156C153.99 315.235 154.058 315.36 154.053 315.537C154.022 316.792 154.152 318.099 153.782 319.318C153.563 320.037 152.756 320.807 152.022 320.235Z" fill="#7A5B53"/>
<path d="M163.146 314.646C162.854 314.271 162.281 314.12 161.859 313.974C161.531 313.865 161.182 313.792 160.839 313.714C161.458 314.203 162.13 314.719 162.875 314.995C163.198 315.115 163.432 315.016 163.146 314.646ZM163.562 315.641C162.839 316.083 161.625 315.099 161.099 314.719C160.516 314.297 159.891 313.823 159.38 313.276C159.344 313.261 159.302 313.25 159.266 313.234C159.094 313.151 159.026 313.005 159.021 312.854C159.016 312.849 159.005 312.839 159 312.823C158.854 312.63 159.062 312.386 159.266 312.386C159.37 312.318 159.5 312.281 159.646 312.328C160.828 312.677 162.115 312.974 163.156 313.656C163.755 314.042 164.401 315.136 163.562 315.641Z" fill="#7A5B53"/>
<path d="M161.64 303.307C161.187 303.271 160.749 303.938 160.531 304.245C160.307 304.547 160.114 304.906 159.921 305.266C160.567 304.807 161.275 304.313 161.729 303.662C161.864 303.464 161.932 303.339 161.64 303.307ZM160.895 305.349C160.327 305.781 159.702 306.245 159.041 306.568C159.015 306.594 158.999 306.63 158.968 306.656C158.848 306.771 158.713 306.787 158.583 306.771C158.557 306.781 158.531 306.797 158.51 306.802C158.265 306.891 158.14 306.662 158.187 306.464C158.14 306.344 158.124 306.209 158.208 306.063C158.791 305.005 159.593 303.771 160.546 303.016C161.051 302.615 162.473 302.292 162.52 303.323C162.557 304.172 161.473 304.912 160.895 305.349Z" fill="#7A5B53"/>
<path d="M150.582 301.609C150.442 301.406 150.291 301.219 150.171 301.531C150.009 301.948 150.499 302.526 150.718 302.833C150.968 303.177 151.265 303.49 151.562 303.802C151.312 303.047 151.041 302.276 150.582 301.609ZM152.608 305.531C152.619 305.771 152.4 305.839 152.233 305.776C152.088 305.807 151.926 305.781 151.812 305.635C151.041 304.656 150.041 303.708 149.582 302.531C149.358 301.927 149.395 300.469 150.416 300.682C151.244 300.859 151.629 302.109 151.89 302.781C152.15 303.453 152.416 304.214 152.541 304.958C152.556 304.979 152.577 305.005 152.593 305.026C152.692 305.182 152.676 305.344 152.603 305.484C152.603 305.5 152.608 305.516 152.608 305.531Z" fill="#7A5B53"/>
<path d="M145.525 311.594C145.301 311.656 144.833 311.765 145.166 312.021C145.531 312.302 146.234 311.989 146.604 311.854C147.041 311.703 147.458 311.484 147.874 311.276C147.057 311.297 146.218 311.411 145.525 311.594ZM149.687 310.833C149.958 310.901 149.937 311.229 149.749 311.349C149.703 311.484 149.609 311.609 149.442 311.677C148.234 312.14 147.057 312.807 145.744 312.88C145.02 312.922 144.072 312.328 144.442 311.51C144.765 310.786 146.239 310.776 146.88 310.729C147.588 310.677 148.38 310.64 149.119 310.734C149.135 310.729 149.156 310.719 149.176 310.713C149.38 310.646 149.536 310.708 149.64 310.823C149.656 310.828 149.671 310.828 149.687 310.833Z" fill="#7A5B53"/>
<path d="M211.098 362.714C211.447 362.422 211.426 361.714 211.447 361.313C211.463 360.875 211.426 360.433 211.4 359.99C211.072 360.797 210.838 361.657 210.775 362.401C210.749 362.677 210.759 363 211.098 362.714ZM210.348 363.313C209.739 362.839 210.275 361.427 210.447 360.886C210.681 360.146 210.983 359.323 211.39 358.625C211.39 358.625 211.39 358.62 211.39 358.615C211.411 358.422 211.515 358.297 211.65 358.219C211.661 358.203 211.671 358.183 211.681 358.167C211.843 357.953 212.155 358.042 212.218 358.235C212.322 358.313 212.39 358.438 212.384 358.615C212.353 359.87 212.483 361.177 212.114 362.396C211.895 363.115 211.082 363.886 210.348 363.313Z" fill="#7A5B53"/>
<path d="M221.478 357.724C221.187 357.349 220.614 357.193 220.192 357.052C219.859 356.943 219.515 356.865 219.171 356.792C219.791 357.281 220.463 357.797 221.202 358.068C221.53 358.193 221.765 358.094 221.478 357.724ZM221.895 358.719C221.171 359.161 219.957 358.177 219.431 357.797C218.848 357.375 218.223 356.901 217.713 356.354C217.676 356.338 217.635 356.328 217.593 356.307C217.426 356.229 217.359 356.083 217.353 355.932C217.348 355.922 217.338 355.911 217.327 355.901C217.187 355.708 217.395 355.469 217.593 355.463C217.702 355.391 217.832 355.359 217.978 355.401C219.161 355.755 220.447 356.052 221.489 356.729C222.088 357.12 222.734 358.213 221.895 358.719Z" fill="#7A5B53"/>
<path d="M219.973 346.386C219.52 346.349 219.083 347.016 218.864 347.323C218.635 347.625 218.447 347.985 218.255 348.339C218.9 347.886 219.604 347.391 220.062 346.74C220.197 346.542 220.265 346.412 219.973 346.386ZM219.229 348.427C218.661 348.86 218.036 349.323 217.374 349.651C217.348 349.677 217.328 349.709 217.302 349.735C217.182 349.844 217.046 349.87 216.911 349.849C216.89 349.86 216.864 349.87 216.838 349.88C216.598 349.969 216.468 349.735 216.515 349.542C216.468 349.422 216.458 349.287 216.536 349.141C217.119 348.084 217.927 346.849 218.88 346.094C219.385 345.688 220.807 345.37 220.854 346.401C220.89 347.25 219.807 347.99 219.229 348.427Z" fill="#7A5B53"/>
<path d="M208.916 344.687C208.776 344.484 208.625 344.297 208.505 344.609C208.343 345.026 208.833 345.604 209.052 345.911C209.302 346.255 209.599 346.568 209.896 346.88C209.64 346.12 209.37 345.349 208.916 344.687ZM210.942 348.609C210.948 348.844 210.734 348.911 210.567 348.854C210.416 348.885 210.26 348.859 210.146 348.708C209.375 347.734 208.37 346.786 207.916 345.604C207.692 345.005 207.729 343.542 208.75 343.76C209.573 343.937 209.963 345.187 210.224 345.859C210.484 346.531 210.75 347.286 210.875 348.036C210.89 348.057 210.906 348.078 210.927 348.104C211.026 348.26 211.01 348.422 210.937 348.557C210.937 348.573 210.942 348.594 210.942 348.609Z" fill="#7A5B53"/>
<path d="M203.859 354.672C203.635 354.734 203.161 354.844 203.499 355.099C203.864 355.38 204.567 355.062 204.937 354.932C205.374 354.776 205.791 354.562 206.208 354.354C205.39 354.375 204.551 354.49 203.859 354.672ZM208.02 353.911C208.291 353.979 208.265 354.307 208.083 354.422C208.036 354.562 207.942 354.687 207.775 354.75C206.567 355.219 205.39 355.885 204.077 355.958C203.353 356 202.406 355.406 202.77 354.589C203.098 353.865 204.572 353.854 205.213 353.807C205.921 353.75 206.713 353.719 207.452 353.807C207.468 353.802 207.489 353.792 207.51 353.786C207.713 353.724 207.869 353.786 207.973 353.901C207.989 353.901 208.005 353.906 208.02 353.911Z" fill="#7A5B53"/>
<path d="M343.907 318.661C343.803 318.193 343.631 317.745 343.469 317.292C343.391 318.125 343.402 318.984 343.521 319.698C343.547 319.854 343.594 320.255 343.803 320.141C344.245 319.901 343.99 319.021 343.907 318.661ZM343.329 320.734C342.662 320.307 342.787 318.979 342.808 318.328C342.834 317.583 342.886 316.745 343.074 315.984C343.074 315.979 343.074 315.979 343.074 315.974C343.037 315.781 343.105 315.63 343.209 315.521C343.214 315.5 343.219 315.474 343.23 315.453C343.324 315.198 343.657 315.214 343.766 315.391C343.886 315.437 343.99 315.536 344.032 315.708C344.355 316.958 344.896 318.224 344.818 319.536C344.782 320.214 344.105 321.24 343.329 320.734Z" fill="#7A5B53"/>
<path d="M352.595 312.359C352.308 312.011 351.6 312.026 351.204 312.005C350.767 311.984 350.324 312.016 349.886 312.042C350.657 312.354 351.475 312.589 352.188 312.677C352.454 312.714 352.912 312.75 352.595 312.359ZM353.199 313.109C352.537 313.672 351.386 313.208 350.683 312.974C349.98 312.734 349.194 312.443 348.522 312.042C348.522 312.042 348.517 312.042 348.511 312.042C348.319 312.016 348.188 311.906 348.116 311.776C348.1 311.761 348.079 311.75 348.063 311.74C347.85 311.578 347.944 311.255 348.136 311.198C348.215 311.104 348.34 311.037 348.511 311.042C349.761 311.083 351.069 310.964 352.277 311.344C352.845 311.516 353.928 312.484 353.199 313.109Z" fill="#7A5B53"/>
<path d="M347.724 301.901C347.323 302.125 347.146 302.807 347.016 303.203C346.906 303.531 346.823 303.875 346.745 304.224C347.24 303.609 347.755 302.942 348.037 302.203C348.156 301.875 348.099 301.682 347.724 301.901ZM346.297 305.687C346.281 305.724 346.271 305.76 346.255 305.802C346.172 305.968 346.026 306.036 345.88 306.041C345.865 306.047 345.86 306.057 345.844 306.062C345.651 306.203 345.417 305.995 345.412 305.802C345.339 305.692 345.302 305.562 345.349 305.416C345.714 304.239 346.016 302.942 346.703 301.906C347.094 301.312 348.188 300.666 348.688 301.51C349.125 302.245 348.141 303.448 347.75 303.974C347.328 304.557 346.849 305.187 346.297 305.687Z" fill="#7A5B53"/>
<path d="M336.718 303.26C336.525 303.12 336.395 303.047 336.369 303.338C336.327 303.797 336.984 304.234 337.291 304.458C337.593 304.682 337.947 304.88 338.301 305.073C337.848 304.427 337.369 303.719 336.718 303.26ZM339.494 306.828C339.374 306.88 339.239 306.89 339.098 306.807C338.041 306.219 336.817 305.396 336.067 304.437C335.671 303.932 335.359 302.495 336.39 302.458C337.239 302.427 337.958 303.515 338.4 304.099C338.833 304.667 339.291 305.307 339.609 305.979C339.635 306 339.661 306.021 339.687 306.042C339.796 306.167 339.817 306.297 339.801 306.427C339.812 306.453 339.822 306.479 339.833 306.5C339.916 306.745 339.687 306.875 339.494 306.828Z" fill="#7A5B53"/>
<path d="M334.505 314.823C334.922 314.989 335.5 314.51 335.807 314.286C336.156 314.041 336.469 313.745 336.781 313.448C336.026 313.698 335.255 313.958 334.594 314.411C334.391 314.547 334.193 314.698 334.505 314.823ZM337.932 312.479C337.958 312.458 337.984 312.437 338.01 312.422C338.167 312.323 338.333 312.344 338.469 312.416C338.484 312.416 338.5 312.411 338.521 312.411C338.755 312.401 338.823 312.62 338.755 312.791C338.792 312.937 338.76 313.094 338.615 313.208C337.635 313.974 336.682 314.974 335.5 315.416C334.906 315.64 333.437 315.594 333.667 314.573C333.849 313.745 335.094 313.37 335.766 313.114C336.437 312.854 337.193 312.594 337.932 312.479Z" fill="#7A5B53"/>
<mask id="mask4_3264_787" style="mask-type:luminance" maskUnits="userSpaceOnUse" x="82" y="351" width="336" height="59">
<path d="M82.541 351.875H417.619V409.484H82.541V351.875Z" fill="white"/>
</mask>
<g mask="url(#mask4_3264_787)">
<mask id="mask5_3264_787" style="mask-type:luminance" maskUnits="userSpaceOnUse" x="82" y="351" width="336" height="59">
<path d="M105.541 351.875H394.458C400.557 351.875 406.406 354.297 410.723 358.609C415.036 362.927 417.458 368.776 417.458 374.875V386.484C417.458 392.583 415.036 398.432 410.723 402.75C406.406 407.063 400.557 409.484 394.458 409.484H105.541C99.4421 409.484 93.5931 407.063 89.2754 402.75C84.9629 398.432 82.541 392.583 82.541 386.484V374.875C82.541 368.776 84.9629 362.927 89.2754 358.609C93.5931 354.297 99.4421 351.875 105.541 351.875Z" fill="white"/>
</mask>
<g mask="url(#mask5_3264_787)">
<path d="M82.541 351.875H417.395V409.484H82.541V351.875Z" fill="#EE4D45"/>
</g>
</g>
<path d="M149.692 362.655V368.905H138.734V375.134H148.859V381.384H138.734V393.946H131.588V362.655H149.692Z" fill="white"/>
<path d="M153.102 393.947V374.488H159.831V377.301H159.893C159.945 377.191 160.029 377.061 160.143 376.905C160.253 376.754 160.497 376.488 160.872 376.113C161.258 375.738 161.669 375.4 162.102 375.092C162.529 374.79 163.086 374.52 163.768 374.28C164.445 374.046 165.143 373.926 165.852 373.926C166.586 373.926 167.31 374.03 168.018 374.238C168.727 374.436 169.247 374.629 169.581 374.822L170.102 375.134L167.289 380.822C166.456 380.113 165.294 379.759 163.81 379.759C163.003 379.759 162.31 379.941 161.727 380.301C161.143 380.65 160.727 381.082 160.477 381.592C160.237 382.092 160.07 382.525 159.977 382.884C159.878 383.233 159.831 383.504 159.831 383.697V393.947H153.102Z" fill="white"/>
<path d="M178.329 374.488V383.738C178.329 385.671 178.621 387.04 179.204 387.842C179.788 388.65 180.772 389.051 182.163 389.051C183.548 389.051 184.538 388.65 185.121 387.842C185.704 387.04 185.996 385.671 185.996 383.738V374.488H192.725V385.363C192.725 388.613 191.876 390.957 190.184 392.384C188.501 393.801 185.829 394.509 182.163 394.509C178.496 394.509 175.819 393.801 174.142 392.384C172.46 390.957 171.621 388.613 171.621 385.363V374.488H178.329Z" fill="white"/>
<path d="M198.031 374.488V367.238H204.74V374.488H208.844V379.613H204.74V385.78C204.74 387.587 205.245 388.488 206.26 388.488C206.51 388.488 206.771 388.441 207.052 388.342C207.328 388.233 207.542 388.129 207.698 388.03L207.927 387.884L209.594 393.301C208.146 394.103 206.51 394.509 204.677 394.509C203.411 394.509 202.323 394.29 201.406 393.863C200.49 393.421 199.792 392.822 199.323 392.072C198.865 391.322 198.531 390.54 198.323 389.717C198.125 388.9 198.031 388.02 198.031 387.072V379.613H195.219V374.488H198.031Z" fill="white"/>
<path d="M213.206 391.53C211.383 389.546 210.477 387.113 210.477 384.238C210.477 381.353 211.383 378.915 213.206 376.926C215.023 374.926 217.336 373.926 220.143 373.926C222.727 373.926 224.852 374.733 226.518 376.342V374.488H233.227V393.947H226.602V391.738H226.518C224.852 393.587 222.727 394.509 220.143 394.509C217.336 394.509 215.023 393.52 213.206 391.53ZM218.914 380.926C218.039 381.79 217.602 382.895 217.602 384.238C217.602 385.572 218.018 386.665 218.852 387.509C219.685 388.358 220.789 388.78 222.164 388.78C223.466 388.78 224.544 388.358 225.393 387.509C226.237 386.65 226.664 385.561 226.664 384.238C226.664 382.895 226.227 381.79 225.352 380.926C224.487 380.066 223.424 379.634 222.164 379.634C220.872 379.634 219.789 380.066 218.914 380.926Z" fill="white"/>
<path d="M237.787 393.947V374.488H244.516V376.53H244.579C246.329 374.796 248.188 373.926 250.162 373.926C251.579 373.926 252.902 374.217 254.141 374.801C255.376 375.374 256.313 376.27 256.954 377.488C258.923 375.113 261.068 373.926 263.391 373.926C265.475 373.926 267.256 374.509 268.745 375.676C270.245 376.832 270.995 378.65 270.995 381.134V393.947H264.266V382.947C264.266 381.905 263.98 381.04 263.412 380.342C262.839 379.65 261.985 379.301 260.85 379.301C259.86 379.301 259.11 379.603 258.6 380.197C258.084 380.796 257.798 381.509 257.745 382.342V393.947H251.037V382.947C251.037 381.905 250.751 381.04 250.183 380.342C249.61 379.65 248.756 379.301 247.62 379.301C246.579 379.301 245.798 379.629 245.287 380.28C244.771 380.921 244.516 381.686 244.516 382.572V393.947H237.787Z" fill="white"/>
<path d="M282.118 368.759L289.805 362.071L293.264 366.446L284.222 371.675L282.118 368.759ZM294.847 385.155H280.743C280.743 386.519 281.18 387.53 282.055 388.196C282.941 388.853 283.91 389.175 284.951 389.175C286.035 389.175 286.889 389.03 287.514 388.738C288.149 388.446 288.878 387.873 289.701 387.009L294.555 389.425C292.524 392.816 289.16 394.509 284.451 394.509C281.519 394.509 279.003 393.509 276.91 391.509C274.811 389.498 273.764 387.071 273.764 384.238C273.764 381.405 274.811 378.983 276.91 376.967C279.003 374.941 281.519 373.925 284.451 373.925C287.545 373.925 290.061 374.816 291.993 376.592C293.92 378.373 294.889 380.92 294.889 384.238C294.889 384.696 294.873 385.004 294.847 385.155ZM280.93 381.425H288.326C288.17 380.415 287.769 379.634 287.118 379.092C286.477 378.55 285.66 378.28 284.66 378.28C283.535 378.28 282.644 378.571 281.993 379.155C281.337 379.738 280.982 380.498 280.93 381.425Z" fill="white"/>
<path d="M298.039 393.947V374.488H304.768V377.301H304.831C304.883 377.191 304.966 377.061 305.081 376.905C305.19 376.754 305.435 376.488 305.81 376.113C306.195 375.738 306.607 375.4 307.039 375.092C307.466 374.79 308.023 374.52 308.706 374.28C309.383 374.046 310.081 373.926 310.789 373.926C311.523 373.926 312.247 374.03 312.956 374.238C313.664 374.436 314.185 374.629 314.518 374.822L315.039 375.134L312.227 380.822C311.393 380.113 310.232 379.759 308.747 379.759C307.94 379.759 307.247 379.941 306.664 380.301C306.081 380.65 305.664 381.082 305.414 381.592C305.174 382.092 305.008 382.525 304.914 382.884C304.815 383.233 304.768 383.504 304.768 383.697V393.947H298.039Z" fill="white"/>
<path d="M317.579 363.634C318.37 362.858 319.308 362.467 320.391 362.467C321.475 362.467 322.402 362.858 323.183 363.634C323.975 364.415 324.37 365.353 324.37 366.446C324.37 367.53 323.975 368.467 323.183 369.259C322.402 370.04 321.475 370.426 320.391 370.426C319.308 370.426 318.37 370.04 317.579 369.259C316.798 368.467 316.412 367.53 316.412 366.446C316.412 365.353 316.798 364.415 317.579 363.634ZM316.933 374.488V393.946H323.662V374.488H316.933Z" fill="white"/>
<path d="M338.746 379.426C337.48 379.426 336.392 379.895 335.475 380.822C334.569 381.754 334.121 382.879 334.121 384.197C334.121 385.546 334.569 386.686 335.475 387.613C336.392 388.546 337.48 389.009 338.746 389.009C339.355 389.009 339.934 388.936 340.475 388.78C341.017 388.629 341.418 388.478 341.684 388.322L342.017 388.113L344.288 392.78C344.121 392.905 343.876 393.066 343.559 393.259C343.236 393.441 342.517 393.691 341.392 394.009C340.267 394.342 339.059 394.509 337.767 394.509C334.902 394.509 332.392 393.509 330.225 391.509C328.069 389.499 326.996 387.087 326.996 384.28C326.996 381.447 328.069 379.02 330.225 376.988C332.392 374.947 334.902 373.926 337.767 373.926C339.059 373.926 340.246 374.082 341.329 374.384C342.423 374.676 343.194 374.978 343.642 375.28L344.288 375.738L342.017 380.322C341.184 379.728 340.09 379.426 338.746 379.426Z" fill="white"/>
<path d="M348.354 391.53C346.531 389.546 345.625 387.113 345.625 384.238C345.625 381.353 346.531 378.915 348.354 376.926C350.172 374.926 352.484 373.926 355.292 373.926C357.875 373.926 360 374.733 361.667 376.342V374.488H368.375V393.947H361.75V391.738H361.667C360 393.587 357.875 394.509 355.292 394.509C352.484 394.509 350.172 393.52 348.354 391.53ZM354.063 380.926C353.188 381.79 352.75 382.895 352.75 384.238C352.75 385.572 353.167 386.665 354 387.509C354.833 388.358 355.938 388.78 357.313 388.78C358.615 388.78 359.693 388.358 360.542 387.509C361.385 386.65 361.813 385.561 361.813 384.238C361.813 382.895 361.375 381.79 360.5 380.926C359.635 380.066 358.573 379.634 357.313 379.634C356.021 379.634 354.938 380.066 354.063 380.926Z" fill="white"/>
<path d="M282.348 104.682L287.197 96.4322L290.046 98.1041L289.348 99.2968L289.38 99.3124C289.427 99.2811 289.489 99.2499 289.572 99.2134C289.661 99.177 289.833 99.1249 290.088 99.0572C290.343 98.9947 290.604 98.9478 290.859 98.927C291.114 98.9061 291.421 98.927 291.77 98.9947C292.119 99.0624 292.442 99.1874 292.744 99.3645C293.057 99.5468 293.338 99.7707 293.583 100.031C293.833 100.297 294.005 100.51 294.093 100.677L294.244 100.937L291.635 102.656C291.458 102.146 291.052 101.703 290.421 101.333C290.078 101.13 289.739 101.031 289.4 101.036C289.067 101.042 288.786 101.125 288.557 101.276C288.333 101.432 288.15 101.573 288.02 101.698C287.89 101.823 287.802 101.927 287.749 102.01L285.197 106.354L282.348 104.682Z" stroke="white" stroke-width="4.89998"/>
<path d="M300.23 111.5L294.678 107.339C294.272 107.875 294.147 108.406 294.303 108.922C294.459 109.443 294.74 109.86 295.152 110.162C295.579 110.485 295.959 110.677 296.292 110.75C296.626 110.823 297.079 110.807 297.657 110.708L298.85 113.099C297.053 113.833 295.23 113.505 293.376 112.12C292.22 111.255 291.527 110.12 291.292 108.708C291.058 107.297 291.36 106.037 292.193 104.922C293.032 103.807 294.157 103.156 295.584 102.979C297.006 102.802 298.298 103.146 299.449 104.011C300.667 104.922 301.391 106.011 301.626 107.287C301.86 108.557 301.496 109.849 300.516 111.151C300.381 111.328 300.287 111.448 300.23 111.5ZM295.845 105.927L298.761 108.11C298.996 107.667 299.068 107.24 298.98 106.839C298.886 106.432 298.641 106.083 298.24 105.787C297.803 105.458 297.365 105.313 296.933 105.349C296.506 105.386 296.141 105.578 295.845 105.927Z" stroke="white" stroke-width="4.89998"/>
<path d="M305.271 109.094L306.646 107.594C307.625 106.547 308.641 105.932 309.708 105.745C310.776 105.557 311.74 105.854 312.599 106.646C312.969 106.984 313.271 107.359 313.505 107.766C313.745 108.182 313.891 108.511 313.932 108.75L314.031 109.12L311.599 110.057C311.5 109.729 311.313 109.443 311.047 109.198C310.745 108.922 310.448 108.839 310.161 108.953C309.87 109.068 309.49 109.38 309.016 109.896L307.708 111.323L309.328 112.813L307.625 114.667L306.005 113.182L301.24 118.38L298.802 116.151L303.568 110.948L302.552 110.016L304.255 108.162L305.271 109.094Z" stroke="white" stroke-width="4.89998"/>
<path d="M303.219 120.235L310.281 113.781L312.51 116.219L311.489 117.146L311.515 117.177C311.573 117.156 311.646 117.146 311.734 117.136C311.828 117.13 312.005 117.13 312.271 117.141C312.536 117.151 312.792 117.188 313.047 117.24C313.297 117.297 313.583 117.412 313.896 117.578C314.208 117.745 314.484 117.959 314.719 118.214C314.963 118.485 315.167 118.776 315.323 119.099C315.484 119.427 315.583 119.683 315.62 119.87L315.687 120.162L312.693 121.031C312.672 120.495 312.411 119.953 311.917 119.412C311.651 119.12 311.354 118.922 311.031 118.828C310.708 118.735 310.417 118.729 310.151 118.813C309.89 118.891 309.677 118.974 309.515 119.052C309.354 119.136 309.239 119.209 309.167 119.276L305.443 122.672L303.219 120.235Z" stroke="white" stroke-width="4.89998"/>
<path d="M318.298 132.021L314.214 126.406C313.673 126.797 313.397 127.266 313.386 127.812C313.386 128.354 313.532 128.833 313.834 129.245C314.147 129.677 314.454 129.974 314.751 130.141C315.048 130.307 315.485 130.427 316.068 130.505L316.501 133.141C314.568 133.312 312.923 132.463 311.563 130.588C310.714 129.422 310.386 128.135 310.574 126.719C310.772 125.302 311.428 124.182 312.553 123.364C313.683 122.542 314.954 122.26 316.365 122.51C317.777 122.755 318.907 123.463 319.756 124.63C320.652 125.859 321.022 127.114 320.871 128.401C320.72 129.687 319.99 130.812 318.673 131.771C318.49 131.901 318.365 131.984 318.298 132.021ZM315.746 125.401L317.886 128.344C318.246 127.989 318.443 127.609 318.47 127.193C318.501 126.781 318.371 126.375 318.079 125.969C317.756 125.531 317.381 125.26 316.959 125.167C316.537 125.078 316.136 125.151 315.746 125.401Z" stroke="white" stroke-width="4.89998"/>
<path d="M325.901 134.229C326.171 134.703 326.385 135.203 326.541 135.729C326.697 136.255 326.786 136.667 326.807 136.953L326.843 137.386L324.427 137.516C324.401 136.672 324.223 135.959 323.89 135.375C323.703 135.047 323.536 134.839 323.39 134.745C323.244 134.651 323.072 134.656 322.88 134.771C322.833 134.792 322.796 134.823 322.76 134.86C322.723 134.896 322.692 134.938 322.671 134.99C322.656 135.047 322.64 135.094 322.63 135.136C322.614 135.177 322.614 135.24 322.614 135.323C322.619 135.406 322.624 135.474 322.63 135.521C322.635 135.568 322.645 135.646 322.661 135.745C322.677 135.854 322.692 135.933 322.703 135.985C322.708 136.037 322.729 136.125 322.749 136.245C322.781 136.37 322.802 136.459 322.822 136.521C322.916 136.912 322.973 137.266 322.999 137.578C323.02 137.896 323.005 138.25 322.958 138.641C322.911 139.037 322.77 139.396 322.541 139.724C322.317 140.058 322.005 140.339 321.604 140.563C319.713 141.641 318.02 140.865 316.526 138.235C316.187 137.641 315.953 137.026 315.833 136.386C315.713 135.745 315.677 135.255 315.723 134.912L315.812 134.391L318.442 134.438C318.411 134.573 318.39 134.735 318.364 134.933C318.343 135.13 318.343 135.464 318.374 135.938C318.406 136.406 318.499 136.776 318.656 137.042C318.994 137.641 319.364 137.823 319.765 137.594C319.947 137.49 320.046 137.334 320.062 137.125C320.078 136.912 320.052 136.589 319.973 136.151C319.895 135.719 319.854 135.365 319.843 135.104C319.822 134.427 319.89 133.844 320.062 133.344C320.229 132.849 320.593 132.443 321.156 132.12C321.999 131.641 322.838 131.594 323.682 131.979C324.526 132.365 325.265 133.115 325.901 134.229Z" stroke="white" stroke-width="4.89998"/>
<path d="M328.115 144.849C327.859 144.281 327.432 143.885 326.828 143.661C326.224 143.438 325.63 143.458 325.037 143.724C324.438 143.99 324.016 144.422 323.776 145.016C323.537 145.615 323.542 146.198 323.797 146.766C323.917 147.036 324.068 147.281 324.245 147.495C324.422 147.708 324.568 147.859 324.688 147.943L324.859 148.047L323.214 150.005C323.12 149.953 323 149.87 322.849 149.771C322.703 149.667 322.448 149.391 322.073 148.948C321.703 148.51 321.386 148 321.13 147.417C320.557 146.135 320.511 144.807 320.979 143.432C321.448 142.057 322.318 141.094 323.578 140.531C324.849 139.969 326.162 139.964 327.511 140.531C328.859 141.099 329.818 142.021 330.386 143.302C330.646 143.885 330.813 144.448 330.891 145C330.974 145.552 330.99 145.958 330.948 146.219L330.87 146.604L328.349 146.495C328.458 146 328.38 145.453 328.115 144.849Z" stroke="white" stroke-width="4.89998"/>
<path d="M324.334 151.229C325.006 150.083 326.021 149.302 327.376 148.886C328.73 148.469 330.006 148.542 331.209 149.109C332.412 149.672 333.219 150.615 333.626 151.938C334.001 153.146 333.928 154.266 333.412 155.287L334.282 155.016L335.256 158.172L326.11 160.995L325.146 157.87L326.183 157.552L326.173 157.516C325.063 157 324.318 156.136 323.949 154.922C323.537 153.604 323.667 152.37 324.334 151.229ZM330.146 152.37C329.62 152.089 329.037 152.042 328.407 152.24C327.777 152.432 327.324 152.787 327.042 153.302C326.771 153.818 326.73 154.396 326.928 155.042C327.12 155.656 327.475 156.104 328.001 156.375C328.532 156.646 329.105 156.688 329.725 156.5C330.355 156.302 330.808 155.938 331.084 155.406C331.36 154.875 331.407 154.307 331.225 153.714C331.037 153.109 330.678 152.662 330.146 152.37Z" stroke="white" stroke-width="4.89998"/>
<path d="M326.464 162.552L335.907 161L336.444 164.255L335.449 164.422L335.454 164.458C336.444 165.167 337.016 166 337.173 166.953C337.251 167.422 337.266 167.896 337.22 168.375C337.173 168.854 337.053 169.328 336.865 169.792C336.678 170.26 336.371 170.667 335.938 171.005C335.506 171.349 334.98 171.573 334.355 171.677L328.131 172.698L327.595 169.437L332.938 168.562C333.428 168.479 333.829 168.25 334.147 167.875C334.459 167.505 334.579 167.068 334.496 166.562C334.418 166.073 334.152 165.656 333.704 165.323C333.261 164.984 332.803 164.854 332.339 164.932L327.001 165.812L326.464 162.552Z" stroke="white" stroke-width="4.89998"/>
<path d="M337.746 174.271L341.308 174.073L341.49 177.37L337.933 177.568L338.042 179.578L335.527 179.719L335.417 177.709L332.381 177.88C331.501 177.927 331.074 178.203 331.1 178.698C331.105 178.818 331.136 178.948 331.193 179.084C331.256 179.219 331.308 179.323 331.36 179.391L331.443 179.5L328.829 180.469C328.391 179.781 328.147 178.985 328.094 178.078C328.058 177.459 328.136 176.922 328.329 176.459C328.522 176 328.792 175.646 329.147 175.396C329.501 175.146 329.881 174.959 330.277 174.839C330.673 174.719 331.1 174.646 331.558 174.62L335.23 174.412L335.152 173.037L337.667 172.891L337.746 174.271Z" stroke="white" stroke-width="4.89998"/>
<path d="M332.437 191L332.749 184.063C332.083 184.031 331.572 184.229 331.228 184.646C330.885 185.068 330.708 185.537 330.682 186.047C330.655 186.578 330.713 187.005 330.838 187.318C330.968 187.636 331.234 188.005 331.64 188.422L330.338 190.755C328.718 189.682 327.963 187.995 328.067 185.682C328.135 184.24 328.682 183.026 329.713 182.037C330.749 181.052 331.963 180.589 333.353 180.651C334.744 180.714 335.916 181.287 336.864 182.36C337.812 183.438 338.254 184.698 338.187 186.136C338.119 187.656 337.624 188.87 336.708 189.776C335.786 190.693 334.515 191.11 332.89 191.037C332.661 191.026 332.515 191.016 332.437 191ZM334.577 184.24L334.411 187.875C334.911 187.818 335.307 187.641 335.588 187.339C335.869 187.037 336.02 186.636 336.041 186.136C336.067 185.589 335.942 185.146 335.666 184.813C335.395 184.474 335.03 184.287 334.577 184.24Z" stroke="white" stroke-width="4.89998"/>
<path d="M337.006 197.469C336.923 198.01 336.777 198.536 336.568 199.042C336.365 199.552 336.178 199.927 336.016 200.167L335.771 200.526L333.803 199.12C334.308 198.443 334.615 197.771 334.719 197.109C334.777 196.74 334.782 196.474 334.725 196.307C334.667 196.141 334.532 196.042 334.308 196.005C334.256 196 334.209 196 334.157 196C334.105 196.005 334.058 196.021 334.006 196.052C333.959 196.083 333.917 196.115 333.881 196.141C333.85 196.167 333.803 196.208 333.756 196.276C333.709 196.344 333.673 196.401 333.646 196.437C333.62 196.479 333.579 196.547 333.527 196.635C333.475 196.729 333.438 196.797 333.412 196.844C333.386 196.891 333.344 196.974 333.287 197.083C333.23 197.193 333.193 197.281 333.173 197.344C333.001 197.703 332.824 198.016 332.646 198.276C332.469 198.536 332.235 198.807 331.954 199.083C331.667 199.359 331.334 199.557 330.954 199.672C330.568 199.792 330.152 199.812 329.693 199.74C327.548 199.401 326.709 197.74 327.178 194.75C327.282 194.078 327.49 193.453 327.792 192.875C328.1 192.297 328.376 191.891 328.626 191.656L329.021 191.302L331.042 192.979C330.943 193.068 330.818 193.177 330.678 193.318C330.537 193.458 330.329 193.724 330.058 194.109C329.792 194.495 329.636 194.844 329.589 195.151C329.48 195.828 329.657 196.203 330.11 196.276C330.318 196.307 330.495 196.245 330.636 196.089C330.782 195.937 330.959 195.667 331.173 195.276C331.386 194.885 331.568 194.589 331.73 194.375C332.131 193.833 332.553 193.422 332.995 193.135C333.433 192.854 333.975 192.766 334.615 192.865C335.574 193.016 336.256 193.505 336.678 194.328C337.094 195.156 337.204 196.203 337.006 197.469Z" stroke="white" stroke-width="4.89998"/>
<path d="M282.361 104.678L287.215 96.4072L290.049 98.0739L289.34 99.2822L289.361 99.3031C289.413 99.277 289.486 99.2406 289.57 99.1989C289.663 99.1572 289.84 99.1104 290.09 99.0531C290.34 98.9854 290.59 98.9437 290.84 98.9281C291.101 98.902 291.413 98.9229 291.778 98.9906C292.137 99.0635 292.465 99.1885 292.757 99.3656C293.059 99.5479 293.34 99.7718 293.59 100.032C293.851 100.282 294.028 100.491 294.111 100.657L294.236 100.949L291.632 102.657C291.465 102.147 291.059 101.699 290.424 101.324C290.09 101.131 289.747 101.043 289.403 101.053C289.07 101.053 288.788 101.131 288.57 101.282C288.346 101.438 288.163 101.574 288.028 101.699C287.887 101.813 287.799 101.907 287.757 101.991L285.195 106.345L282.361 104.678Z" fill="#EE4D45"/>
<path d="M300.238 111.507L294.676 107.34C294.259 107.882 294.124 108.413 294.28 108.923C294.447 109.45 294.738 109.866 295.155 110.173C295.582 110.491 295.967 110.684 296.301 110.757C296.634 110.825 297.082 110.809 297.655 110.715L298.863 113.09C297.056 113.825 295.228 113.496 293.384 112.111C292.217 111.236 291.514 110.095 291.28 108.694C291.056 107.309 291.363 106.059 292.197 104.944C293.04 103.819 294.176 103.168 295.592 102.986C297.009 102.793 298.301 103.132 299.467 104.007C300.686 104.923 301.41 106.022 301.634 107.298C301.868 108.559 301.493 109.851 300.509 111.173C300.384 111.351 300.29 111.465 300.238 111.507ZM295.842 105.923L298.759 108.111C298.993 107.653 299.061 107.231 298.967 106.84C298.884 106.439 298.644 106.09 298.259 105.798C297.801 105.465 297.353 105.319 296.926 105.361C296.509 105.392 296.144 105.58 295.842 105.923Z" fill="#EE4D45"/>
<path d="M305.294 109.096L306.648 107.596C307.617 106.544 308.637 105.924 309.71 105.742C310.778 105.565 311.742 105.862 312.606 106.638C312.981 106.987 313.283 107.367 313.523 107.784C313.757 108.2 313.898 108.523 313.939 108.742L314.044 109.117L311.606 110.054C311.481 109.721 311.294 109.44 311.044 109.2C310.736 108.924 310.439 108.846 310.148 108.971C309.856 109.086 309.481 109.388 309.023 109.888L307.71 111.325L309.335 112.804L307.627 114.659L306.002 113.179L301.231 118.388L298.814 116.159L303.585 110.95L302.544 109.992L304.252 108.138L305.294 109.096Z" fill="#EE4D45"/>
<path d="M303.211 120.242L310.294 113.783L312.523 116.221L311.482 117.158L311.503 117.179C311.57 117.153 311.648 117.137 311.732 117.137C311.826 117.127 312.008 117.127 312.273 117.137C312.534 117.153 312.794 117.189 313.044 117.242C313.305 117.283 313.591 117.398 313.898 117.575C314.216 117.757 314.487 117.971 314.711 118.221C314.961 118.486 315.169 118.778 315.336 119.096C315.503 119.413 315.607 119.669 315.648 119.867L315.69 120.179L312.69 121.033C312.659 120.492 312.398 119.95 311.898 119.408C311.648 119.117 311.362 118.929 311.044 118.846C310.721 118.752 310.424 118.742 310.148 118.825C309.883 118.898 309.669 118.971 309.503 119.054C309.346 119.137 309.237 119.215 309.169 119.283L305.44 122.679L303.211 120.242Z" fill="#EE4D45"/>
<path d="M318.294 132.034L314.211 126.409C313.669 126.794 313.388 127.263 313.378 127.805C313.378 128.357 313.529 128.836 313.836 129.242C314.138 129.669 314.44 129.972 314.732 130.138C315.034 130.305 315.487 130.43 316.086 130.513L316.523 133.138C314.575 133.315 312.924 132.472 311.565 130.597C310.7 129.43 310.367 128.138 310.565 126.722C310.758 125.305 311.419 124.19 312.544 123.367C313.68 122.55 314.95 122.263 316.357 122.513C317.773 122.763 318.909 123.472 319.773 124.638C320.659 125.873 321.029 127.128 320.878 128.409C320.737 129.701 320.003 130.826 318.669 131.784C318.487 131.919 318.362 132.003 318.294 132.034ZM315.753 125.409L317.898 128.347C318.242 127.982 318.43 127.597 318.461 127.18C318.503 126.774 318.378 126.373 318.086 125.972C317.753 125.513 317.378 125.242 316.961 125.159C316.544 125.065 316.138 125.149 315.753 125.409Z" fill="#EE4D45"/>
<path d="M325.912 134.246C326.173 134.715 326.381 135.21 326.537 135.726C326.688 136.252 326.787 136.663 326.829 136.955L326.85 137.413L324.412 137.517C324.396 136.668 324.23 135.96 323.912 135.392C323.714 135.059 323.542 134.84 323.391 134.746C323.235 134.647 323.063 134.653 322.87 134.767C322.839 134.778 322.808 134.809 322.766 134.851C322.725 134.892 322.688 134.934 322.662 134.976C322.631 135.028 322.62 135.08 322.62 135.121C322.62 135.173 322.62 135.246 322.62 135.33C322.62 135.413 322.62 135.476 322.62 135.517C322.631 135.559 322.646 135.632 322.662 135.746C322.673 135.856 322.688 135.934 322.704 135.976C322.714 136.028 322.73 136.111 322.745 136.226C322.771 136.351 322.798 136.444 322.829 136.517C322.912 136.903 322.964 137.257 322.995 137.58C323.037 137.897 323.027 138.252 322.975 138.642C322.917 139.043 322.777 139.403 322.558 139.726C322.334 140.043 322.016 140.319 321.6 140.559C319.725 141.627 318.037 140.851 316.537 138.226C316.204 137.627 315.975 137.007 315.85 136.371C315.725 135.746 315.683 135.257 315.725 134.913L315.808 134.392L318.433 134.434C318.417 134.559 318.396 134.726 318.37 134.934C318.339 135.142 318.339 135.481 318.37 135.955C318.412 136.423 318.506 136.793 318.662 137.059C318.995 137.642 319.36 137.814 319.766 137.58C319.943 137.481 320.042 137.33 320.058 137.121C320.068 136.913 320.042 136.585 319.975 136.142C319.902 135.71 319.86 135.361 319.85 135.101C319.818 134.423 319.891 133.84 320.058 133.351C320.225 132.851 320.584 132.444 321.141 132.121C321.985 131.637 322.834 131.59 323.683 131.976C324.527 132.366 325.271 133.121 325.912 134.246Z" fill="#EE4D45"/>
<path d="M328.099 144.844C327.849 144.286 327.422 143.896 326.828 143.677C326.229 143.453 325.63 143.474 325.037 143.74C324.438 144 324.016 144.432 323.766 145.031C323.526 145.625 323.537 146.203 323.787 146.76C323.912 147.036 324.057 147.281 324.224 147.49C324.401 147.698 324.563 147.844 324.703 147.927L324.849 148.052L323.224 150.01C323.125 149.969 323 149.891 322.849 149.781C322.708 149.667 322.453 149.391 322.078 148.948C321.703 148.5 321.391 147.99 321.141 147.406C320.568 146.125 320.521 144.802 320.995 143.427C321.464 142.068 322.328 141.104 323.578 140.531C324.87 139.964 326.182 139.964 327.516 140.531C328.859 141.104 329.818 142.026 330.391 143.302C330.641 143.885 330.807 144.448 330.891 144.99C330.984 145.542 331.005 145.953 330.953 146.219L330.87 146.594L328.349 146.49C328.458 146 328.375 145.453 328.099 144.844Z" fill="#EE4D45"/>
<path d="M324.327 151.238C324.993 150.098 326.004 149.322 327.368 148.905C328.728 148.478 330.004 148.546 331.202 149.113C332.41 149.686 333.212 150.624 333.618 151.947C333.993 153.155 333.931 154.264 333.431 155.28L334.306 155.009L335.264 158.155L326.098 160.988L325.139 157.863L326.181 157.551V157.53C325.066 156.999 324.327 156.134 323.952 154.926C323.545 153.603 323.67 152.374 324.327 151.238ZM330.16 152.363C329.629 152.082 329.045 152.04 328.41 152.238C327.785 152.431 327.332 152.785 327.056 153.301C326.775 153.811 326.743 154.395 326.952 155.051C327.129 155.66 327.483 156.098 328.014 156.363C328.54 156.639 329.108 156.681 329.723 156.488C330.358 156.29 330.816 155.926 331.098 155.384C331.374 154.853 331.42 154.301 331.243 153.717C331.045 153.103 330.686 152.655 330.16 152.363Z" fill="#EE4D45"/>
<path d="M326.467 162.551L335.925 160.988L336.446 164.238L335.446 164.405L335.467 164.447C336.451 165.155 337.019 165.988 337.175 166.947C337.258 167.415 337.269 167.889 337.217 168.363C337.175 168.848 337.055 169.322 336.863 169.78C336.68 170.249 336.373 170.655 335.946 170.988C335.514 171.332 334.988 171.561 334.363 171.676L328.133 172.697L327.592 169.447L332.946 168.572C333.43 168.488 333.826 168.249 334.133 167.863C334.451 167.488 334.571 167.051 334.488 166.551C334.404 166.061 334.139 165.645 333.696 165.301C333.248 164.967 332.8 164.842 332.342 164.926L326.988 165.801L326.467 162.551Z" fill="#EE4D45"/>
<path d="M337.762 174.275L341.324 174.087L341.491 177.379L337.928 177.566L338.053 179.566L335.532 179.712L335.407 177.712L332.387 177.879C331.496 177.931 331.064 178.212 331.095 178.712C331.105 178.837 331.142 178.962 331.199 179.087C331.251 179.223 331.309 179.327 331.366 179.4L331.449 179.504L328.824 180.462C328.392 179.796 328.147 179.004 328.095 178.087C328.069 177.473 328.142 176.931 328.324 176.462C328.517 176.004 328.788 175.65 329.137 175.4C329.496 175.15 329.876 174.962 330.282 174.837C330.684 174.723 331.116 174.655 331.574 174.629L335.241 174.421L335.157 173.025L337.678 172.879L337.762 174.275Z" fill="#EE4D45"/>
<path d="M332.456 190.988L332.768 184.051C332.086 184.02 331.57 184.218 331.227 184.634C330.893 185.061 330.711 185.535 330.685 186.051C330.654 186.577 330.706 186.999 330.831 187.322C330.966 187.64 331.237 188.009 331.643 188.426L330.352 190.759C328.727 189.686 327.971 187.994 328.081 185.676C328.138 184.228 328.674 183.015 329.706 182.03C330.747 181.056 331.961 180.598 333.352 180.655C334.753 180.723 335.924 181.291 336.872 182.363C337.815 183.431 338.258 184.686 338.206 186.134C338.133 187.66 337.643 188.874 336.727 189.78C335.81 190.697 334.529 191.113 332.893 191.03C332.669 191.03 332.523 191.015 332.456 190.988ZM334.581 184.238L334.435 187.884C334.935 187.827 335.32 187.645 335.602 187.343C335.878 187.051 336.023 186.655 336.039 186.155C336.065 185.598 335.94 185.155 335.664 184.822C335.398 184.488 335.039 184.291 334.581 184.238Z" fill="#EE4D45"/>
<path d="M337.009 197.493C336.91 198.019 336.759 198.54 336.55 199.056C336.352 199.566 336.181 199.936 336.03 200.16L335.78 200.535L333.8 199.139C334.311 198.441 334.623 197.769 334.738 197.118C334.79 196.743 334.785 196.472 334.717 196.306C334.66 196.139 334.519 196.04 334.3 196.014C334.259 195.998 334.207 195.993 334.155 195.993C334.097 195.993 334.04 196.004 333.988 196.035C333.946 196.061 333.905 196.087 333.863 196.118C333.832 196.16 333.79 196.212 333.738 196.285C333.696 196.353 333.66 196.399 333.634 196.431C333.618 196.472 333.582 196.535 333.53 196.618C333.472 196.712 333.431 196.785 333.405 196.826C333.389 196.879 333.347 196.962 333.28 197.076C333.222 197.186 333.181 197.274 333.155 197.347C332.998 197.707 332.832 198.019 332.655 198.285C332.472 198.545 332.238 198.811 331.946 199.076C331.655 199.353 331.321 199.556 330.946 199.681C330.571 199.806 330.144 199.826 329.675 199.743C327.54 199.41 326.707 197.748 327.175 194.764C327.29 194.082 327.498 193.451 327.8 192.868C328.102 192.295 328.384 191.894 328.634 191.66L329.009 191.306L331.05 192.972C330.951 193.056 330.826 193.17 330.675 193.326C330.535 193.478 330.326 193.743 330.05 194.118C329.785 194.504 329.634 194.853 329.592 195.16C329.477 195.826 329.644 196.191 330.092 196.264C330.3 196.306 330.472 196.243 330.613 196.076C330.764 195.92 330.951 195.649 331.175 195.264C331.394 194.889 331.582 194.587 331.738 194.368C332.123 193.826 332.54 193.41 332.988 193.118C333.446 192.837 333.988 192.754 334.613 192.868C335.571 193.004 336.259 193.493 336.675 194.326C337.092 195.16 337.201 196.212 337.009 197.493Z" fill="#EE4D45"/>
</svg>
