<svg width="164" height="51" viewBox="0 0 164 51" fill="none" xmlns="http://www.w3.org/2000/svg">
<mask id="mask0_73_1004" style="mask-type:luminance" maskUnits="userSpaceOnUse" x="0" y="0" width="164" height="51">
<path d="M0 0H164V50.639H0V0Z" fill="white"/>
</mask>
<g mask="url(#mask0_73_1004)">
<path fill-rule="evenodd" clip-rule="evenodd" d="M11.0135 45.5185C10.1677 44.9371 10.3227 42.7234 11.2506 42.1056C11.6929 41.8092 13.747 41.3875 15.8125 41.1709C19.5218 40.7788 19.5696 40.7491 19.5696 38.8706C19.5696 37.3089 19.3736 36.9464 18.489 36.8529C17.8963 36.7914 16.8703 36.0687 16.2115 35.248C15.1377 33.912 14.6316 33.7615 11.4421 33.8276C8.43051 33.8869 7.75568 33.7137 7.10594 32.706C6.68418 32.0494 6.33765 31.1056 6.33765 30.604C6.33765 29.9634 5.58075 29.5553 3.76147 29.2247C1.86239 28.8782 1.05306 28.4245 0.681452 27.5035C-0.139278 25.4676 1.63897 24.216 6.8506 23.165C9.42906 22.6452 11.5516 22.1551 11.563 22.0775C11.5744 22.0023 11.8023 21.389 12.0714 20.7142C12.6801 19.189 13.3572 18.7103 15.8057 18.0879C17.2465 17.7208 17.7435 17.2672 17.7435 16.3233C17.7435 14.732 18.7398 14.0526 21.5143 13.7449C25.3056 13.3231 24.2136 12.7144 19.1091 12.4043C14.4993 12.1216 14.1049 11.9962 13.152 10.5189C11.8707 8.53094 12.3814 7.1357 14.5883 6.59083C17.3126 5.91601 17.4426 5.81342 16.8772 4.76927C16.4942 4.06025 16.5101 3.66356 16.941 3.20304C18.1037 1.96055 40.1996 0.423961 57.2092 0.405722C62.4801 0.401163 69.0482 0.341888 71.8091 0.273494C88.7298 -0.136871 115.36 0.973394 140.135 3.12097C159.404 4.79207 161.465 5.0702 161.465 6.01404C161.465 7.53923 160.746 7.61218 150.971 7.06731C146.076 6.79601 141.794 6.75954 141.455 6.98524C141.115 7.21322 144.387 7.99063 148.73 8.71105C153.07 9.43147 157.005 10.3593 157.473 10.7697C158.863 11.994 158.118 13.0427 155.875 13.0176C154.723 13.0062 153.533 13.3983 153.232 13.893C152.881 14.4676 152.858 14.8095 153.166 14.8414C153.431 14.8688 154.224 15.27 154.928 15.7306L156.207 16.5695L155.131 17.6296C154.213 18.5347 154.162 18.7627 154.794 19.1799C156.034 19.9984 155.622 21.503 154.051 21.8746C152.706 22.1915 152.872 22.3238 155.859 23.3018C159.547 24.5101 160.582 25.5292 159.657 27.0452C159.335 27.5696 158.838 27.9754 158.551 27.9458C158.266 27.9161 157.828 28.5362 157.58 29.3273C157.149 30.7043 156.866 30.7431 150.857 30.2826C141.286 29.5485 143.01 30.9163 152.986 31.9742C157.609 32.4643 161.715 33.0799 162.112 33.342C162.944 33.8915 163.065 35.7427 162.331 36.7253C161.966 37.2132 162.089 37.5437 162.789 37.9381C164.107 38.6836 163.991 40.2955 162.577 40.9224C161.934 41.2074 159.11 41.2028 156.303 40.911C151.484 40.4117 148.862 40.8517 150.528 41.8822C150.898 42.1102 152.124 42.4795 153.253 42.7006C154.958 43.0358 155.307 43.3276 155.307 44.4242C155.307 45.5094 154.954 45.7442 153.317 45.7396C151.853 45.7351 151.269 46.0451 151.11 46.9137C150.861 48.2634 148.949 48.6806 144.909 48.2634C142.932 48.0582 141.936 48.309 140.949 49.2596C139.745 50.4201 139.218 50.4565 134.921 49.6974C128.841 48.6213 93.5356 45.8445 82.3053 45.5595C50.4085 44.7456 32.6352 44.6567 23.4157 45.2654C12.9947 45.9494 11.6769 45.9767 11.0135 45.5185Z" fill="#272169"/>
</g>
<path d="M40.2829 16.7677L41.0398 20.3516L34.7658 21.6738L35.5227 25.2303L41.3134 24.0084L42.0703 27.5831L36.2796 28.8051L37.7934 35.991L33.7171 36.8573L29.9326 18.9563L40.2829 16.7677Z" fill="#DFA2C8"/>
<path d="M42.9512 16.2516L49.4167 15.2759C51.1607 15.016 52.6495 15.2668 53.8851 16.0328C55.1253 16.7942 55.8754 18.0367 56.1376 19.7625C56.3382 21.0939 56.1695 22.2612 55.636 23.2643C55.1071 24.2629 54.3 25.0289 53.2194 25.5624L60.5695 32.1008L55.3259 32.8942L48.7236 26.5746L49.7997 33.7241L45.6778 34.3442L42.9512 16.2516ZM48.2859 23.6564L48.7784 23.5835C49.1545 23.5288 49.4714 23.4786 49.7267 23.4285C49.9866 23.3737 50.2785 23.278 50.6022 23.1366C50.9305 22.9976 51.1813 22.8312 51.3591 22.6351C51.5415 22.4413 51.6805 22.1837 51.7786 21.86C51.8743 21.5317 51.8903 21.1487 51.8242 20.7109C51.7626 20.2687 51.6349 19.9039 51.4412 19.6166C51.2451 19.3317 51.0331 19.1242 50.8028 18.9965C50.5771 18.8643 50.2876 18.7777 49.9365 18.7412C49.59 18.7047 49.2822 18.7002 49.0155 18.7229C48.7533 18.748 48.4341 18.7868 48.0579 18.8415L47.5655 18.9145L48.2859 23.6564Z" fill="#DFA2C8"/>
<path d="M73.4994 12.7177L74.4752 24.4632C74.6621 26.7065 74.2016 28.4551 73.0891 29.7068C71.9765 30.9538 70.253 31.6742 67.9185 31.868C65.5885 32.0572 63.7738 31.6286 62.4743 30.5822C61.1794 29.5312 60.4361 27.8829 60.2492 25.6396L59.2734 13.894L63.4227 13.5475L64.2981 24.0893C64.419 25.5621 64.7358 26.5675 65.2465 27.1078C65.7572 27.6435 66.5346 27.8692 67.581 27.7826C68.6252 27.6914 69.3593 27.3403 69.7788 26.7248C70.1983 26.1115 70.3464 25.0696 70.2256 23.5969L69.3502 13.0551L73.4994 12.7177Z" fill="#DFA2C8"/>
<path d="M75.6211 16.2839L75.5391 12.6271L88.4063 12.3444L88.4883 16.0012L84.1385 16.1015L84.4485 30.7378L80.2811 30.8199L79.971 16.1836L75.6211 16.2839Z" fill="#DFA2C8"/>
<path d="M101.037 12.7395L100.918 16.3963L94.6261 16.1957L94.5075 19.8343L100.535 20.0258L100.417 23.6735L94.389 23.4819L94.2704 27.1661L100.563 27.3667L100.444 31.0235L89.9844 30.6861L90.5771 12.4021L101.037 12.7395Z" fill="#DFA2C8"/>
<path d="M108.227 13.2801L106.987 27.8617L113.261 28.3997L112.951 32.0474L102.519 31.1537L104.069 12.9244L108.227 13.2801Z" fill="#DFA2C8"/>
<path d="M121.31 14.7004L119.322 29.2L125.568 30.0572L125.067 33.6775L114.698 32.2549L117.188 14.135L121.31 14.7004Z" fill="#DFA2C8"/>
<path d="M139.459 17.804L143.098 37.1914L138.711 36.3069L138.1 32.4586L131.279 31.0907L129.227 34.401L124.832 33.5255L135.675 17.038L139.459 17.804ZM137.435 28.592L136.477 22.9655L136.432 22.9563L133.386 27.7713L137.435 28.592Z" fill="#DFA2C8"/>
<path d="M40.2832 13.998L41.0401 17.5796L34.7683 18.9042L35.5206 22.4584L41.3091 21.2341L42.066 24.8157L36.2775 26.0399L37.7936 33.2213L33.7173 34.0831L29.9328 16.1866L40.2832 13.998Z" stroke="#BF5697" stroke-width="0.582161"/>
<path d="M42.9584 13.485L49.4239 12.5115C51.1657 12.2494 52.6544 12.4979 53.89 13.2616C55.1257 14.0253 55.8735 15.2678 56.1334 16.9914C56.334 18.3228 56.1676 19.4877 55.6364 20.4886C55.1075 21.4871 54.3027 22.2554 53.2175 22.7912L60.5699 29.3319L55.3309 30.1208L48.7286 23.8057L49.8046 30.9529L45.6828 31.5753L42.9584 13.485ZM48.2886 20.8898L48.7696 20.8169C49.148 20.7599 49.4695 20.7029 49.7317 20.6505C49.9939 20.5957 50.2857 20.5 50.6071 20.3632C50.9309 20.2241 51.1794 20.06 51.3595 19.8685C51.5418 19.6724 51.6832 19.4102 51.7835 19.0819C51.8838 18.7514 51.8998 18.3706 51.8359 17.9352C51.7698 17.4952 51.6399 17.1327 51.4461 16.8477C51.2546 16.565 51.0426 16.3576 50.81 16.2276C50.5843 16.0977 50.2948 16.0133 49.946 15.9746C49.5972 15.9358 49.2894 15.929 49.0227 15.9541C48.7582 15.9791 48.4345 16.0224 48.056 16.0794L47.575 16.1501L48.2886 20.8898Z" stroke="#BF5697" stroke-width="0.582161"/>
<path d="M73.5026 9.93989L74.4761 21.6968C74.6607 23.9333 74.1979 25.6774 73.0854 26.929C71.9706 28.1761 70.2516 28.8965 67.9239 29.0903C65.5962 29.2818 63.7815 28.8554 62.4775 27.809C61.1734 26.758 60.4279 25.1143 60.2433 22.8755L59.2698 11.1208L63.4236 10.7743L64.2968 21.3184C64.4199 22.7889 64.7368 23.792 65.2474 24.33C65.7604 24.8681 66.5378 25.0915 67.5842 25.0048C68.6329 24.9182 69.3625 24.5694 69.7797 23.9539C70.1969 23.3406 70.3428 22.2987 70.222 20.826L69.3465 10.2841L73.5026 9.93989Z" stroke="#BF5697" stroke-width="0.582161"/>
<path d="M75.6232 13.5147L75.5457 9.85564L88.3992 9.57978L88.479 13.2389L84.1382 13.3323L84.4506 27.9619L80.2831 28.0508L79.9708 13.4213L75.6232 13.5147Z" stroke="#BF5697" stroke-width="0.582161"/>
<path d="M101.036 9.96725L100.917 13.6263L94.6251 13.4212L94.5066 17.0529L100.534 17.2467L100.416 20.9058L94.388 20.7097L94.2695 24.3893L100.562 24.5945L100.443 28.2513L89.9834 27.9116L90.5762 9.62756L101.036 9.96725Z" stroke="#BF5697" stroke-width="0.582161"/>
<path d="M108.228 10.5099L106.988 25.0915L113.262 25.625L112.952 29.2727L102.524 28.3858L104.074 10.1565L108.228 10.5099Z" stroke="#BF5697" stroke-width="0.582161"/>
<path d="M121.318 11.9257L119.325 26.4229L125.563 27.2801L125.064 30.9073L114.697 29.4824L117.189 11.358L121.318 11.9257Z" stroke="#BF5697" stroke-width="0.582161"/>
<path d="M139.463 15.0307L143.097 34.4204L138.708 33.5382L138.102 29.683L131.276 28.3106L129.229 31.6323L124.834 30.75L135.679 14.2693L139.463 15.0307ZM137.432 25.8165L136.481 20.1968L136.438 20.1876L133.387 25.0026L137.432 25.8165Z" stroke="#BF5697" stroke-width="0.58216"/>
</svg>
